<svg width="50" height="50" viewBox="0 0 50 50" fill="none" xmlns="http://www.w3.org/2000/svg">
<path d="M22.4744 32.352H17.7981V32.0221C17.7981 30.7522 18.8313 29.7189 20.1013 29.7189C21.9483 29.7189 23.4512 28.2162 23.4512 26.369C23.4512 24.5219 21.9483 23.0192 20.1013 23.0192H16.8214C16.282 23.0192 15.8447 23.4564 15.8447 23.9958C15.8447 24.5353 16.282 24.9725 16.8214 24.9725H20.1012C20.8713 24.9725 21.4978 25.5991 21.4978 26.3691C21.4978 27.1391 20.8712 27.7656 20.1012 27.7656C17.7542 27.7656 15.8447 29.675 15.8447 32.0221V33.3288C15.8447 33.8682 16.2821 34.3054 16.8214 34.3054H22.4744C23.0138 34.3054 23.4511 33.8682 23.4511 33.3288C23.4511 32.7893 23.0138 32.352 22.4744 32.352Z" fill="#222222"/>
<path d="M31.8962 23.0539C31.3568 23.0539 30.9195 23.4911 30.9195 24.0305V27.7578H27.2199V24.0681C27.2199 23.5287 26.7826 23.0915 26.2433 23.0915C25.7039 23.0915 25.2666 23.5288 25.2666 24.0681V28.7344C25.2666 29.2739 25.704 29.7111 26.2433 29.7111H30.9195V33.3633C30.9195 33.9027 31.3568 34.3399 31.8962 34.3399C32.4355 34.3399 32.8729 33.9026 32.8729 33.3633V24.0304C32.8729 23.4911 32.4355 23.0539 31.8962 23.0539Z" fill="#222222"/>
<path d="M28.8255 14.5496C28.3034 14.4129 27.7699 14.725 27.6332 15.2468C27.4965 15.7687 27.8087 16.3025 28.3305 16.4391C34.0769 17.9448 38.0902 23.1508 38.0902 29.0993C38.0902 36.3152 32.2196 42.1859 25.0037 42.1859C22.3048 42.1859 19.7095 41.3637 17.5285 39.8424L18.7623 39.7193C19.299 39.6658 19.6907 39.1872 19.6371 38.6505C19.5835 38.1137 19.1053 37.7217 18.5683 37.7756L14.9559 38.136C14.6981 38.1619 14.461 38.2889 14.297 38.4893C14.133 38.6897 14.0552 38.9472 14.081 39.2049L14.4415 42.8174C14.4918 43.3212 14.9164 43.6971 15.4121 43.6971C15.4445 43.6971 15.4772 43.6955 15.5102 43.6923C16.0469 43.6387 16.4386 43.1601 16.385 42.6234L16.2564 41.3347C18.7951 43.1539 21.837 44.1392 25.0035 44.1392C33.2965 44.1392 40.0433 37.3923 40.0433 29.0993C40.0434 22.2632 35.4305 16.2801 28.8255 14.5496Z" fill="#222222"/>
<path d="M42.3194 17.3843L44.4703 15.2332C44.8517 14.8519 44.8517 14.2334 44.4703 13.8519L40.31 9.6915C39.9285 9.31016 39.3103 9.31016 38.9286 9.6915L36.7867 11.8334C34.6931 10.4021 32.3844 9.38447 29.982 8.79482V5.86006H30.8643C32.4799 5.86006 33.7943 4.5457 33.7943 2.93008C33.7943 1.31445 32.48 0 30.8644 0H19.1443C17.5286 0 16.2143 1.31445 16.2143 2.92998C16.2143 4.54551 17.5287 5.85996 19.1443 5.85996H20.0265V8.78984C18.0799 9.26729 16.1782 10.032 14.3835 11.0924C13.9191 11.3667 13.765 11.9656 14.0394 12.4301C14.3138 12.8945 14.9127 13.0487 15.3771 12.7742C22.8161 8.37988 32.2845 9.5834 38.4023 15.7013C41.981 19.28 43.9518 24.0381 43.9518 29.0991C43.9518 34.1602 41.9809 38.9183 38.4023 42.4971C34.8236 46.0758 30.0655 48.0466 25.0043 48.0466C19.9432 48.0466 15.1852 46.0758 11.6064 42.4971C5.48849 36.3792 4.28488 26.9109 8.67932 19.4719C8.95363 19.0074 8.79943 18.4086 8.33518 18.1342C7.87053 17.8596 7.2718 18.014 6.99748 18.4783C2.14953 26.685 3.47687 37.1299 10.2252 43.8781C14.1729 47.826 19.4215 50 25.0043 50C30.5871 50 35.8358 47.8259 39.7834 43.8783C43.7311 39.9307 45.9051 34.6819 45.9051 29.0992C45.9052 24.8604 44.6507 20.8147 42.3194 17.3843ZM28.0288 8.4124C26.0312 8.11943 23.9929 8.11641 21.9799 8.40996V5.86006H28.0288V8.4124ZM21.0032 3.90674H19.1444C18.6058 3.90674 18.1677 3.46855 18.1677 2.93008C18.1677 2.3915 18.6059 1.95342 19.1444 1.95342H30.8645C31.403 1.95342 31.8411 2.3916 31.8411 2.93008C31.8411 3.46865 31.403 3.90674 30.8645 3.90674H29.0056H21.0032ZM39.7836 14.3202C39.3257 13.8623 38.8504 13.4304 38.3604 13.0228L39.6194 11.7638L42.3984 14.5429L41.1349 15.8063C40.7107 15.2932 40.2604 14.7969 39.7836 14.3202Z" fill="#222222"/>
<path d="M11.6201 14.3056C11.2386 13.9243 10.6204 13.9243 10.2387 14.3056L10.2245 14.3199C9.84314 14.7013 9.84314 15.3197 10.2245 15.7013C10.4153 15.892 10.6652 15.9873 10.9152 15.9873C11.1652 15.9873 11.4151 15.892 11.6058 15.7013L11.6201 15.687C12.0015 15.3056 12.0015 14.6871 11.6201 14.3056Z" fill="#222222"/>
<path d="M25.0342 14.0594H25.004C24.4646 14.0594 24.0273 14.4967 24.0273 15.0361C24.0273 15.5756 24.4647 16.0128 25.004 16.0128H25.0227C25.0246 16.0128 25.0266 16.0128 25.0285 16.0128C25.5652 16.0128 26.002 15.5793 26.0051 15.0419C26.0083 14.5025 25.5737 14.0627 25.0342 14.0594Z" fill="#222222"/>
</svg>
