<svg width="50" height="50" viewBox="0 0 50 50" fill="none" xmlns="http://www.w3.org/2000/svg">
<path d="M47.5 41.5C42.5264 38.8625 38.7113 37.3836 35.3152 36.8166L35.6667 36.3334C35.8334 36.1667 35.9167 35.9167 35.8334 35.6667L35.0524 32.543C35.3354 32.1429 35.6024 31.7292 35.8525 31.3039C38.958 30.247 40.5284 28.4604 40.7923 25.8299C42.1563 25.7588 43.3333 24.5413 43.3333 23.1667V16.9167C43.3333 15.5483 42.2447 14.3357 40.8186 14.2546C40.6352 9.44053 38.5125 0 25 0C22.021 0 19.1897 0.59043 16.7832 1.77041C15.0773 0.650879 13.0341 0 10.8333 0C4.8333 0 0 4.8333 0 10.8333C0 15.3553 2.7456 19.2141 6.6667 20.841V23.1666C6.6667 24.5833 7.9167 25.8333 9.4167 25.8333H10.6667C11.1251 25.8333 11.5656 25.7019 11.9524 25.4768C12.4251 27.9846 13.468 30.4511 14.9477 32.5429L14.1667 35.6666C14.1667 35.8333 14.1667 36.0833 14.3334 36.3333L14.6849 36.8165C11.2888 37.3836 7.47373 38.8624 2.5001 41.4999C0.916699 42.25 0 43.8333 0 45.5833V49.1666C0 49.6667 0.333301 50 0.833301 50H20.8333H21.1666H28.8333H29.1666H49.1666C49.6666 50 49.9999 49.6667 49.9999 49.1667V45.5834C50 43.9167 49 42.3333 47.5 41.5ZM25.0046 39.5938L27 44.1667H22.9722L25.0046 39.5938ZM22.3667 45.8333H27.6301L28.1179 48.3333H21.8666L22.3667 45.8333ZM33.75 34.1667L34.0833 35.6667L33.232 36.8355C33.1777 36.88 33.1274 36.9338 33.0833 37L29.617 41.7995L28.5172 43.3097L26.2706 38.2549C29.0106 37.9207 31.4507 36.5242 33.407 34.5232C33.5227 34.4066 33.6371 34.2882 33.75 34.1667ZM37.004 28.9828C37.474 27.8392 37.8283 26.6504 38.0523 25.4521C38.3696 25.6443 38.7309 25.7728 39.1203 25.8163C38.9759 26.9942 38.4525 28.1063 37.004 28.9828ZM41.5833 16.8333V23.0833C41.5833 23.5833 41.1666 24.0833 40.5833 24.0833H39.3333C38.8333 24.0833 38.3333 23.6666 38.3333 23.0833V22.5V16.8333C38.3333 16.3333 38.75 15.8333 39.3333 15.8333H40.5833C41.0833 15.8333 41.5833 16.25 41.5833 16.8333ZM25 1.6667C30.1364 1.6667 38.7811 3.34346 39.1527 14.2636C38.8035 14.2994 38.469 14.4056 38.1665 14.5687C37.1524 8.22285 31.6198 3.3333 25 3.3333C23.1709 3.3333 21.3418 3.71904 19.6255 4.48984C19.2094 3.91309 18.7379 3.37939 18.2186 2.89619C20.2318 2.07764 22.5568 1.6667 25 1.6667ZM1.6667 10.8333C1.6667 5.75 5.75 1.6666 10.8334 1.6666C14.0514 1.6666 16.8681 3.30332 18.5023 5.79385C18.5245 5.87051 18.5538 5.94062 18.5834 5.9999C19.4371 7.31934 19.9289 8.85566 19.9925 10.4741C19.9933 10.4934 19.994 10.5127 19.9946 10.5319C19.9979 10.6321 20 10.7324 20 10.8332C20 10.9654 19.9967 11.097 19.9911 11.2278C19.9906 11.2403 19.9902 11.2528 19.9897 11.2653C19.9836 11.3975 19.9747 11.5288 19.9631 11.6594C19.9627 11.6644 19.9622 11.6692 19.9618 11.6742C19.5858 15.7937 16.4719 19.1305 12.3335 19.8332C12.2699 19.8491 12.2063 19.8742 12.1451 19.9071C11.7169 19.9679 11.2791 19.9999 10.8335 19.9999C5.75 20 1.6667 15.9167 1.6667 10.8333ZM11.5833 23.0833C11.5833 23.5833 11.1666 24.0833 10.5833 24.0833H9.3333C8.8333 24.0833 8.3333 23.6666 8.3333 23.0833V21.3784C8.59268 21.4393 8.85576 21.4908 9.12207 21.5328C9.94248 21.6971 10.7629 21.7298 11.5833 21.6667V23.0833ZM13.3333 21.3784C17.8156 20.3266 21.2088 16.5052 21.6231 11.8046C21.6246 11.7879 21.6262 11.7712 21.6275 11.7545C21.6393 11.6146 21.6484 11.4738 21.6548 11.3324C21.6558 11.3105 21.6564 11.2887 21.6572 11.2668C21.6628 11.1229 21.6665 10.9786 21.6665 10.8333C21.6665 10.7302 21.6647 10.6274 21.6619 10.525C21.6611 10.4978 21.6598 10.4706 21.6588 10.4435C21.6561 10.3659 21.6527 10.2886 21.6484 10.2114C21.647 10.1851 21.6451 10.1589 21.6435 10.1325C21.6383 10.0503 21.6321 9.96826 21.6251 9.88662C21.6235 9.86904 21.6221 9.85137 21.6204 9.83379C21.523 8.76152 21.2709 7.73545 20.8859 6.77764C20.8858 6.77744 20.8857 6.77715 20.8856 6.77695C20.8544 6.69922 20.8224 6.62197 20.7894 6.54512C20.7672 6.49307 20.7444 6.44131 20.7216 6.38965C20.7159 6.37695 20.7103 6.36426 20.7045 6.35156C20.639 6.20527 20.5714 6.05996 20.4997 5.9167C21.9167 5.3333 23.4167 5 25 5C31.4167 5 36.6667 10.25 36.6667 16.6667V22.5C36.6667 25.257 35.9489 27.7812 34.7853 29.9108C32.7962 30.4878 29.9348 30.8333 25.8334 30.8333C25.3334 30.8333 25.0001 31.1666 25.0001 31.6666C25.0001 32.1666 25.3334 32.4999 25.8334 32.4999C28.8358 32.4999 31.3469 32.3155 33.4032 31.9301C33.3521 31.9812 33.3011 32.0322 33.25 32.0833C32.8308 32.6423 32.3883 33.152 31.926 33.6115C29.9638 35.4396 27.6234 36.5469 25.3682 36.6565C25.2547 36.6078 25.1274 36.5833 25 36.5833C24.8719 36.5833 24.7564 36.6084 24.6529 36.6576C23.2725 36.5943 21.8597 36.1567 20.5205 35.4083C19.1638 34.6288 17.8875 33.5051 16.75 32.0833C16.6667 32 16.5833 31.9166 16.5 31.8333L16.4514 31.8171C14.5799 29.3626 13.3333 26.1336 13.3333 22.5V21.3784ZM23.7293 38.2549L21.4827 43.3097L20.3829 41.7995L16.9166 37C16.89 36.9734 16.8607 36.9472 16.8303 36.9213L15.9166 35.6667L16.2499 34.1667C16.3627 34.2882 16.4771 34.4065 16.5926 34.523C18.549 36.524 20.9893 37.9206 23.7293 38.2549ZM1.6667 45.5833C1.6667 44.5 2.25 43.5 3.25 43C8.56182 40.1781 12.3855 38.7618 15.7918 38.3388L20.7646 45.1765L20.1333 48.3333H1.6667V45.5833ZM48.3333 48.3333H29.8667L29.2353 45.1765L34.2621 38.2646C37.6563 38.7769 41.5487 40.1921 46.7501 42.9166C47.7501 43.4999 48.3334 44.4999 48.3334 45.5833V48.3333H48.3333Z" fill="black"/>
<path d="M11.6667 12.5001H15V14.1668C15 14.6668 15.3333 15.0001 15.8333 15.0001C16.3333 15.0001 16.6666 14.6668 16.6666 14.1668V12.5001H17.4999C17.9999 12.5001 18.3332 12.1668 18.3332 11.6668C18.3332 11.1668 17.9999 10.8335 17.4999 10.8335H16.6666V6.66678C16.6666 6.33348 16.4166 6.00008 16.0833 5.83348C15.75 5.75018 15.4166 5.83348 15.1666 6.08348L10.9999 11.0835C10.8332 11.3335 10.7499 11.6668 10.9166 12.0002C11.0833 12.3336 11.3333 12.5001 11.6667 12.5001ZM15 9.00008V10.8334H13.4167L15 9.00008Z" fill="black"/>
<path d="M9.9998 13.4169H6.58311L9.4998 10.9169C10.3331 10.0836 10.5831 8.7502 10.1665 7.66689C9.6665 6.5002 8.7498 5.8335 7.4998 5.8335C5.6665 5.8335 4.1665 7.3335 4.1665 9.1668C4.1665 9.6668 4.4998 10.0001 4.9998 10.0001C5.4998 10.0001 5.83311 9.6668 5.83311 9.1668C5.83311 8.2501 6.58311 7.5001 7.4998 7.5001C8.2498 7.5001 8.4998 8.0834 8.58311 8.3334C8.7498 8.6667 8.7498 9.2501 8.33311 9.6667L4.58311 12.9167C4.16641 13.25 4.08311 13.75 4.2498 14.25C4.4998 14.6667 4.9165 15 5.4165 15H9.9998C10.4998 15 10.8331 14.75 10.8331 14.25C10.8331 13.7502 10.4998 13.4169 9.9998 13.4169Z" fill="black"/>
</svg>
