<svg width="18" height="16" viewBox="0 0 18 16" fill="none" xmlns="http://www.w3.org/2000/svg">
<path d="M3.1844 15.5277C3.24909 15.7541 3.45602 15.9102 3.69146 15.9102H14.3086C14.5441 15.9102 14.751 15.7541 14.8157 15.5277L16.8158 8.52734H1.18433L3.1844 15.5277ZM11.4154 13.1868L11.9428 10.0227C11.9907 9.73542 12.2623 9.54121 12.5496 9.58924C12.8369 9.63712 13.031 9.90881 12.9831 10.1961L12.4558 13.3602C12.4128 13.6181 12.1894 13.8009 11.9362 13.8009C11.9074 13.8009 11.8783 13.7986 11.8489 13.7936C11.5616 13.7458 11.3675 13.474 11.4154 13.1868ZM8.47271 10.1094C8.47271 9.81814 8.70882 9.58203 9.00005 9.58203C9.29129 9.58203 9.52739 9.81814 9.52739 10.1094V13.2734C9.52739 13.5647 9.29129 13.8008 9.00005 13.8008C8.70882 13.8008 8.47271 13.5647 8.47271 13.2734V10.1094ZM5.48562 9.58924C5.77295 9.54139 6.04461 9.73542 6.09249 10.0227L6.61983 13.1868C6.66772 13.474 6.47365 13.7458 6.18636 13.7936C6.15704 13.7985 6.12782 13.8009 6.09903 13.8009C5.84587 13.8009 5.62249 13.6181 5.57949 13.3602L5.05215 10.1961C5.00426 9.90881 5.19833 9.63709 5.48562 9.58924Z" fill="#222222"/>
<path d="M17.4727 5.36328H15.6167L11.5563 0.287768C11.3744 0.0604119 11.0426 0.0234626 10.8151 0.205431C10.5877 0.387365 10.5508 0.719205 10.7328 0.946631L14.2661 5.36328H3.73391L7.26725 0.946631C7.44919 0.719205 7.41231 0.38733 7.18492 0.205431C6.95746 0.0234626 6.62562 0.0603768 6.44372 0.287768L2.38328 5.36328H0.527344C0.236109 5.36328 0 5.59939 0 5.89062V6.94531C0 7.23655 0.236109 7.47265 0.527344 7.47265H17.4727C17.7639 7.47265 18 7.23655 18 6.94531V5.89062C18 5.59939 17.7639 5.36328 17.4727 5.36328Z" fill="#222222"/>
</svg>
