<svg width="14" height="14" viewBox="0 0 14 14" fill="none" xmlns="http://www.w3.org/2000/svg">
<path d="M12 0.34375C12.375 0.34375 12.6875 0.479167 12.9375 0.75C13.2083 1 13.3438 1.30208 13.3438 1.65625V9.65625C13.3438 10.0312 13.2083 10.3542 12.9375 10.625C12.6875 10.875 12.375 11 12 11H2.65625L0 13.6562V1.65625C0 1.30208 0.125 1 0.375 0.75C0.645833 0.479167 0.96875 0.34375 1.34375 0.34375H12ZM10.6562 8.34375V7H2.65625V8.34375H10.6562ZM10.6562 6.34375V5H2.65625V6.34375H10.6562ZM10.6562 4.34375V3H2.65625V4.34375H10.6562Z" fill="#999999"/>
</svg>
