<svg width="12" height="14" viewBox="0 0 12 14" fill="none" xmlns="http://www.w3.org/2000/svg">
<path d="M9.34375 8V11.3438H6V8H9.34375ZM8.65625 0.65625H10V2H10.6562C11.0312 2 11.3438 2.13542 11.5938 2.40625C11.8646 2.65625 12 2.96875 12 3.34375V12.6562C12 13.0312 11.8646 13.3542 11.5938 13.625C11.3438 13.875 11.0312 14 10.6562 14H1.34375C0.96875 14 0.645833 13.875 0.375 13.625C0.125 13.3542 0 13.0312 0 12.6562V3.34375C0 2.96875 0.125 2.65625 0.375 2.40625C0.645833 2.13542 0.96875 2 1.34375 2H2V0.65625H3.34375V2H8.65625V0.65625ZM10.6562 12.6562V5.34375H1.34375V12.6562H10.6562Z" fill="#999999"/>
</svg>
