<svg width="15" height="10" viewBox="0 0 15 10" fill="none" xmlns="http://www.w3.org/2000/svg">
<path d="M2.875 1.40625C4.20833 0.46875 5.69792 0 7.34375 0C8.98958 0 10.4688 0.46875 11.7812 1.40625C13.1146 2.32292 14.0729 3.52083 14.6562 5C14.0729 6.47917 13.1146 7.6875 11.7812 8.625C10.4688 9.54167 8.98958 10 7.34375 10C5.69792 10 4.20833 9.54167 2.875 8.625C1.54167 7.6875 0.583333 6.47917 0 5C0.583333 3.52083 1.54167 2.32292 2.875 1.40625ZM4.96875 7.375C5.63542 8.02083 6.42708 8.34375 7.34375 8.34375C8.26042 8.34375 9.04167 8.02083 9.6875 7.375C10.3333 6.70833 10.6562 5.91667 10.6562 5C10.6562 4.08333 10.3333 3.30208 9.6875 2.65625C9.04167 1.98958 8.26042 1.65625 7.34375 1.65625C6.42708 1.65625 5.63542 1.98958 4.96875 2.65625C4.32292 3.30208 4 4.08333 4 5C4 5.91667 4.32292 6.70833 4.96875 7.375ZM5.90625 3.59375C6.30208 3.19792 6.77083 3 7.3125 3C7.875 3 8.35417 3.19792 8.75 3.59375C9.14583 3.96875 9.34375 4.4375 9.34375 5C9.34375 5.5625 9.14583 6.04167 8.75 6.4375C8.35417 6.8125 7.875 7 7.3125 7C6.77083 7 6.30208 6.8125 5.90625 6.4375C5.53125 6.04167 5.34375 5.5625 5.34375 5C5.34375 4.4375 5.53125 3.96875 5.90625 3.59375Z" fill="#999999"/>
</svg>
