<svg width="16" height="16" viewBox="0 0 16 16" fill="none" xmlns="http://www.w3.org/2000/svg">
<path d="M11.9995 0.00332907L9.92463 0C7.59362 0 6.08721 1.54552 6.08721 3.93762V5.75313H4.00105C3.82078 5.75313 3.6748 5.89927 3.6748 6.07954V8.71001C3.6748 8.89028 3.82095 9.03625 4.00105 9.03625H6.08721V15.6738C6.08721 15.854 6.23319 16 6.41346 16H9.13531C9.31558 16 9.46156 15.8539 9.46156 15.6738V9.03625H11.9008C12.081 9.03625 12.227 8.89028 12.227 8.71001L12.228 6.07954C12.228 5.99299 12.1936 5.91009 12.1325 5.84884C12.0714 5.78758 11.9882 5.75313 11.9016 5.75313H9.46156V4.2141C9.46156 3.47438 9.63783 3.09886 10.6014 3.09886L11.9991 3.09836C12.1792 3.09836 12.3252 2.95222 12.3252 2.77211V0.329578C12.3252 0.149642 12.1794 0.00366197 11.9995 0.00332907Z" fill="#999999"/>
</svg>
