<svg width="18" height="12" viewBox="0 0 18 12" fill="none" xmlns="http://www.w3.org/2000/svg">
<path d="M5.77875 4.70971C8.7849 4.70971 10.583 4.70971 11.173 4.70971C11.3696 5.74922 11.3275 6.76064 11.0465 7.74395C10.7656 8.69918 10.2739 9.49988 9.57155 10.1461C8.92537 10.7361 8.13872 11.1434 7.21159 11.3682C6.20018 11.5929 5.21686 11.5789 4.26163 11.326C3.50307 11.1294 2.81475 10.7782 2.19666 10.2725C1.52239 9.73869 1.00263 9.10655 0.637401 8.37609C0.0193152 7.19611 -0.149254 5.94589 0.131694 4.62543C0.215979 4.11972 0.384548 3.64211 0.637401 3.19259C1.31168 1.78785 2.39333 0.832628 3.88235 0.326922C5.17471 -0.122596 6.46708 -0.108548 7.75944 0.369064C8.43371 0.621917 9.0518 1.0012 9.6137 1.5069C9.55751 1.59119 9.45918 1.70357 9.3187 1.84404C9.17823 1.95642 9.09394 2.04071 9.06585 2.0969C8.95347 2.18118 8.77085 2.34975 8.518 2.6026C8.29324 2.82736 8.12467 3.00998 8.01229 3.15045C7.64706 2.78522 7.22564 2.53237 6.74802 2.39189C6.18613 2.22332 5.62423 2.20927 5.06234 2.34975C4.38806 2.49022 3.81212 2.79927 3.3345 3.27688C2.96927 3.67021 2.68832 4.13377 2.49166 4.66757C2.23881 5.39804 2.23881 6.14255 2.49166 6.90111C2.74451 7.63158 3.19403 8.22157 3.84021 8.67108C4.23354 8.95203 4.65496 9.13465 5.10448 9.21893C5.5259 9.30322 5.98946 9.30322 6.49517 9.21893C6.97278 9.13465 7.39421 8.96608 7.75944 8.71323C8.40562 8.2918 8.7849 7.70181 8.89728 6.94325C7.85777 6.94325 6.81826 6.94325 5.77875 6.94325C5.77875 6.77468 5.77875 6.40945 5.77875 5.84755C5.77875 5.25756 5.77875 4.87828 5.77875 4.70971ZM18 4.83614V6.26898H16.0193V8.20752H14.5865V6.26898H12.6058V4.83614H14.5865V2.85546H16.0193V4.83614H18Z" fill="white"/>
</svg>
