<svg width="20" height="20" viewBox="0 0 20 20" fill="none" xmlns="http://www.w3.org/2000/svg">
<path fill-rule="evenodd" clip-rule="evenodd" d="M12.0834 2.15469C12.7306 1.88651 13.4243 1.74847 14.1249 1.74847C14.8255 1.74847 15.5193 1.88651 16.1665 2.15469C16.8137 2.42287 17.4018 2.81595 17.8971 3.31146C18.3925 3.80668 18.7854 4.39465 19.0536 5.04177C19.3218 5.689 19.4598 6.38273 19.4598 7.08333C19.4598 7.78392 19.3218 8.47765 19.0536 9.12489C18.7854 9.77206 18.3924 10.3601 17.8969 10.8553C17.8969 10.8554 17.8969 10.8554 17.8968 10.8555L10.5303 18.222C10.3896 18.3626 10.1988 18.4417 9.99994 18.4417C9.80102 18.4417 9.61026 18.3626 9.46961 18.222L2.10294 10.8553C1.10254 9.85493 0.540527 8.4981 0.540527 7.08333C0.540527 5.66856 1.10254 4.31173 2.10294 3.31133C3.10334 2.31094 4.46016 1.74892 5.87494 1.74892C7.28971 1.74892 8.64654 2.31094 9.64693 3.31133L9.99994 3.66434L10.3528 3.31146C10.8481 2.81595 11.4361 2.42287 12.0834 2.15469ZM14.1249 3.24847C13.6214 3.24847 13.1228 3.34769 12.6576 3.54044C12.1924 3.7332 11.7697 4.01572 11.4137 4.37187L11.4136 4.37199L10.5303 5.25533C10.3896 5.39598 10.1988 5.475 9.99994 5.475C9.80102 5.475 9.61026 5.39598 9.46961 5.25533L8.58627 4.37199C7.86718 3.6529 6.89188 3.24892 5.87494 3.24892C4.85799 3.24892 3.88269 3.6529 3.1636 4.37199C2.44451 5.09108 2.04053 6.06638 2.04053 7.08333C2.04053 8.10028 2.44451 9.07558 3.1636 9.79467L9.99994 16.631L16.8363 9.79467L16.8364 9.79454C17.1925 9.43856 17.4751 9.0159 17.6678 8.5507C17.8606 8.0855 17.9598 7.58688 17.9598 7.08333C17.9598 6.57978 17.8606 6.08116 17.6678 5.61596C17.4751 5.15076 17.1925 4.7281 16.8364 4.37212L16.8361 4.37187C16.4802 4.01572 16.0575 3.7332 15.5923 3.54044C15.1271 3.34769 14.6285 3.24847 14.1249 3.24847Z" fill="#222222"/>
</svg>
