<svg width="50" height="50" viewBox="0 0 50 50" fill="none" xmlns="http://www.w3.org/2000/svg">
<path d="M36.7316 32.3331C35.7316 31.7498 34.5649 31.5831 33.6483 31.8331C32.9816 31.9998 32.3983 32.4164 31.9816 33.0831C31.1483 34.1664 30.0649 35.3331 29.8149 35.4998C27.8149 36.8331 26.2316 36.6665 24.5649 34.9998L15.7926 26.1506C15.7517 26.093 15.7037 26.0415 15.6482 25.9998C15.6482 25.9998 15.6372 25.9908 15.6173 25.9738L15.0649 25.4165C13.3982 23.6665 13.2316 22.1665 14.5649 20.1665C14.8149 19.9165 15.9816 18.8332 16.9816 17.9998C17.5649 17.5831 18.0649 16.9998 18.2316 16.3331C18.4816 15.4164 18.2316 14.3331 17.6483 13.2498C17.4816 12.9998 14.065 7.16646 10.8983 5.49976C9.31498 4.66645 7.31498 4.99976 6.06498 6.24976L3.98158 8.33306C-0.185017 12.4998 -1.10172 17.3331 1.39828 22.6665C2.23158 24.4165 3.48158 26.1665 5.06498 27.7498L22.1483 44.8331C23.4816 46.1664 24.815 47.2498 26.2316 47.9998C28.565 49.3331 30.8983 49.9998 33.065 49.9998C36.1483 49.9998 39.065 48.6665 41.6483 46.0831L43.7316 43.9164C45.0649 42.6664 45.3149 40.6664 44.4816 39.0831C42.815 35.9165 36.9816 32.4998 36.7316 32.3331ZM42.4816 42.8331L40.3983 44.9164C36.4816 48.8331 32.065 49.4164 26.9816 46.5831C25.7316 45.9164 24.4816 44.9164 23.3149 43.7498L6.23158 26.5831C4.73158 25.0831 3.64828 23.4998 2.89828 21.9164C0.731584 17.2498 1.48158 13.1665 5.14828 9.49976L7.23158 7.41646C7.98158 6.66646 9.14828 6.49976 9.98158 6.99976C12.7316 8.41646 16.0649 13.9998 16.0649 14.0831C16.4816 14.7498 16.6482 15.4164 16.4816 15.9164C16.3983 16.1664 16.2316 16.4164 15.8983 16.5831L15.815 16.6664C15.1483 17.3331 13.3983 18.7497 13.065 19.2497C12.5813 19.9637 12.2511 20.6713 12.073 21.3691C11.4978 20.2133 11.0423 18.8807 10.8983 17.4164C10.815 16.9164 10.4816 16.5831 9.98158 16.6664C9.48158 16.7497 9.14828 17.1664 9.23158 17.5831C9.81488 23.4164 14.3983 27.1664 14.5649 27.3331L23.3982 36.1664C23.4619 36.2302 23.5258 36.2918 23.5898 36.3522C23.6079 36.3742 23.6274 36.3956 23.6482 36.4164C23.7315 36.5831 27.4815 40.2497 33.2315 40.8331H33.3148C33.7315 40.8331 34.0648 40.4998 34.1481 40.0831C34.1481 39.5831 33.8148 39.2498 33.3981 39.1664C31.6354 38.9931 30.0637 38.4687 28.7617 37.858C29.4033 37.671 30.0594 37.3574 30.7314 36.9164C31.3147 36.5831 32.7314 34.9164 33.3147 34.1664V34.0831C33.4814 33.7498 33.648 33.5831 33.9814 33.4998C34.4814 33.4165 35.1481 33.5831 35.8147 33.9165C35.8147 33.9165 41.4814 37.2498 42.898 39.9998C43.3983 40.9165 43.2316 42.0831 42.4816 42.8331Z" fill="black"/>
<path d="M35.8151 0C27.9817 0 21.6484 6.3333 21.6484 14.1667C21.6484 16.4167 22.1484 18.6667 23.2317 20.5834L21.6484 27.25C21.5651 27.5833 21.6484 27.9167 21.8984 28.0833C22.0651 28.25 22.2317 28.3333 22.4817 28.3333C22.565 28.3333 22.6484 28.3333 22.7317 28.3333L28.8984 26.5C30.9817 27.6667 33.3984 28.3333 35.8151 28.3333C43.6484 28.3333 49.9818 22 49.9818 14.1666C49.9818 6.3332 43.6484 0 35.8151 0ZM35.8151 26.5833C33.5651 26.5833 31.3151 26 29.3984 24.8333C29.3151 24.75 29.1484 24.75 28.9817 24.75C28.8984 24.75 28.815 24.8333 28.7317 24.8333L23.565 26.3333L24.8983 20.75C24.9816 20.5833 24.8983 20.3333 24.815 20.1667C23.815 18.3334 23.315 16.25 23.315 14.1667C23.315 7.25 28.8983 1.6667 35.815 1.6667C42.7317 1.6667 48.315 7.1667 48.315 14.0834C48.315 21.0001 42.7317 26.5833 35.8151 26.5833Z" fill="black"/>
<path d="M29.9817 10.0001H41.6484C42.1484 10.0001 42.4817 9.66678 42.4817 9.16678C42.4817 8.66678 42.1484 8.33348 41.6484 8.33348H29.9817C29.4817 8.33348 29.1484 8.66678 29.1484 9.16678C29.1484 9.66678 29.4817 10.0001 29.9817 10.0001Z" fill="black"/>
<path d="M43.3147 13.333H28.3147C27.8147 13.333 27.4814 13.6663 27.4814 14.1663C27.4814 14.6663 27.8147 14.9996 28.3147 14.9996H43.3147C43.8147 14.9996 44.148 14.6663 44.148 14.1663C44.148 13.6664 43.8147 13.333 43.3147 13.333Z" fill="black"/>
<path d="M41.6484 18.3335H29.9817C29.4817 18.3335 29.1484 18.6668 29.1484 19.1668C29.1484 19.6668 29.4817 20.0001 29.9817 20.0001H41.6484C42.1484 20.0001 42.4817 19.6668 42.4817 19.1668C42.4817 18.6668 42.1484 18.3335 41.6484 18.3335Z" fill="black"/>
</svg>
