<svg width="16" height="16" viewBox="0 0 16 16" fill="none" xmlns="http://www.w3.org/2000/svg">
<path d="M2.31124 0.8125C1.21133 0.8125 0.492188 1.53476 0.492188 2.48407C0.492188 3.41241 1.18991 4.15527 2.26904 4.15527H2.28991C3.41134 4.15527 4.10925 3.41241 4.10925 2.48407C4.08828 1.53476 3.41134 0.8125 2.31124 0.8125Z" fill="#999999"/>
<path d="M0.682373 5.47656H3.8979V15.1506H0.682373V5.47656Z" fill="#999999"/>
<path d="M11.7905 5.24902C10.0558 5.24902 8.89262 6.87903 8.89262 6.87903V5.47607H5.677V15.1501H8.89244V9.74776C8.89244 9.45854 8.9134 9.16978 8.99836 8.96296C9.23082 8.38545 9.75981 7.78715 10.6481 7.78715C11.8117 7.78715 12.2771 8.6743 12.2771 9.97481V15.1501H15.4923V9.60319C15.4923 6.63175 13.9059 5.24902 11.7905 5.24902Z" fill="#999999"/>
</svg>
