<svg width="16" height="16" viewBox="0 0 16 16" fill="none" xmlns="http://www.w3.org/2000/svg">
<path d="M6.75 12.0117V7.51172H8.26172V12.0117H6.75ZM2.17969 2.97656C3.65625 1.5 5.42578 0.761719 7.48828 0.761719C9.57422 0.761719 11.3438 1.5 12.7969 2.97656C14.2734 4.42969 15.0117 6.1875 15.0117 8.25C15.0117 10.3125 14.2734 12.082 12.7969 13.5586C11.3438 15.0117 9.57422 15.7383 7.48828 15.7383C5.42578 15.7383 3.65625 15.0117 2.17969 13.5586C0.726563 12.082 0 10.3125 0 8.25C0 6.1875 0.726563 4.42969 2.17969 2.97656ZM3.26953 12.5039C4.44141 13.6758 5.84766 14.2617 7.48828 14.2617C9.15234 14.2617 10.5703 13.6758 11.7422 12.5039C12.9141 11.332 13.5 9.91406 13.5 8.25C13.5 6.58594 12.9141 5.16797 11.7422 3.99609C10.5703 2.82422 9.15234 2.23828 7.48828 2.23828C5.84766 2.23828 4.44141 2.82422 3.26953 3.99609C2.09766 5.16797 1.51172 6.58594 1.51172 8.25C1.51172 9.91406 2.09766 11.332 3.26953 12.5039ZM6.75 6V4.48828H8.26172V6H6.75Z" fill="#D05278"/>
</svg>
