<svg width="70" height="70" viewBox="0 0 70 70" fill="none" xmlns="http://www.w3.org/2000/svg">
<g opacity="0.7" clip-path="url(#clip0)">
<path d="M69.9312 20.5802C69.7672 16.8608 69.1658 14.3038 68.3042 12.0881C67.4153 9.73617 66.0479 7.6305 64.2563 5.88005C62.5058 4.10236 60.3863 2.72102 58.0616 1.84606C55.8331 0.984461 53.2894 0.382994 49.5701 0.219006C45.8229 0.0411304 44.6334 0 35.1296 0C25.6258 0 24.4362 0.0411304 20.703 0.205118C16.9836 0.369106 14.4266 0.971106 12.2114 1.83218C9.85895 2.72102 7.75329 4.08848 6.00284 5.88005C4.22516 7.6305 2.84435 9.75006 1.96886 12.0747C1.10726 14.3038 0.505796 16.8469 0.341809 20.5663C0.163933 24.3135 0.122803 25.503 0.122803 35.0068C0.122803 44.5107 0.163933 45.7002 0.32792 49.4335C0.491908 53.1529 1.09391 55.7099 1.95551 57.9256C2.84435 60.2775 4.22516 62.3832 6.00284 64.1336C7.75329 65.9113 9.87284 67.2927 12.1975 68.1676C14.4266 69.0292 16.9697 69.6307 20.6896 69.7947C24.4223 69.9592 25.6124 69.9998 35.1162 69.9998C44.62 69.9998 45.8096 69.9592 49.5428 69.7947C53.2622 69.6307 55.8192 69.0292 58.0344 68.1676C62.7387 66.3488 66.4581 62.6294 68.2769 57.9256C69.138 55.6965 69.74 53.1529 69.904 49.4335C70.068 45.7002 70.1091 44.5107 70.1091 35.0068C70.1091 25.503 70.0952 24.3135 69.9312 20.5802ZM63.6276 49.16C63.4769 52.5786 62.9027 54.4247 62.4241 55.6554C61.2479 58.7049 58.8276 61.1252 55.7781 62.3014C54.5474 62.7801 52.688 63.3543 49.2827 63.5044C45.5906 63.6689 44.4833 63.7095 35.1435 63.7095C25.8037 63.7095 24.6824 63.6689 21.0037 63.5044C17.5851 63.3543 15.739 62.7801 14.5083 62.3014C12.9907 61.7406 11.6094 60.8517 10.4882 59.6894C9.32586 58.5543 8.43702 57.1868 7.87615 55.6693C7.39754 54.4386 6.82332 52.5786 6.67322 49.1739C6.5087 45.4818 6.4681 44.3739 6.4681 35.0341C6.4681 25.6943 6.5087 24.5731 6.67322 20.8948C6.82332 17.4762 7.39754 15.6301 7.87615 14.3994C8.43702 12.8813 9.32586 11.5005 10.5021 10.3788C11.6366 9.21643 13.0041 8.32759 14.5222 7.76725C15.7529 7.28864 17.6128 6.71442 21.0176 6.56378C24.7097 6.39979 25.8175 6.35866 35.1568 6.35866C44.5105 6.35866 45.6178 6.39979 49.2966 6.56378C52.7152 6.71442 54.5613 7.28864 55.792 7.76725C57.3095 8.32759 58.6909 9.21643 59.8121 10.3788C60.9744 11.5139 61.8632 12.8813 62.4241 14.3994C62.9027 15.6301 63.4769 17.4895 63.6276 20.8948C63.7916 24.5869 63.8327 25.6943 63.8327 35.0341C63.8327 44.3739 63.7916 45.4679 63.6276 49.16Z" fill="white"/>
<path d="M35.1294 17.0254C25.2021 17.0254 17.1475 25.0795 17.1475 35.0075C17.1475 44.9354 25.2021 52.9895 35.1294 52.9895C45.0573 52.9895 53.1114 44.9354 53.1114 35.0075C53.1114 25.0795 45.0573 17.0254 35.1294 17.0254ZM35.1294 46.672C28.6891 46.672 23.465 41.4484 23.465 35.0075C23.465 28.5665 28.6891 23.3429 35.1294 23.3429C41.5703 23.3429 46.7939 28.5665 46.7939 35.0075C46.7939 41.4484 41.5703 46.672 35.1294 46.672Z" fill="white"/>
<path d="M58.0213 16.3142C58.0213 18.6325 56.1416 20.5122 53.8228 20.5122C51.5045 20.5122 49.6248 18.6325 49.6248 16.3142C49.6248 13.9954 51.5045 12.1162 53.8228 12.1162C56.1416 12.1162 58.0213 13.9954 58.0213 16.3142Z" fill="white"/>
</g>
<defs>
<clipPath id="clip0">
<rect width="70" height="70" fill="white"/>
</clipPath>
</defs>
</svg>
