<svg width="50" height="50" viewBox="0 0 50 50" fill="none" xmlns="http://www.w3.org/2000/svg">
<g clip-path="url(#clip0)">
<path d="M16.4038 34.2261C18.463 37.1294 20.5188 39.7261 21.8813 41.3985C22.0797 41.6419 22.2655 41.8677 22.4455 42.0852H18.3339C17.8736 42.0852 17.5006 42.4582 17.5006 42.9185C17.5006 43.3787 17.8736 43.7518 18.3339 43.7518H31.6671C32.1274 43.7518 32.5004 43.3787 32.5004 42.9185C32.5004 42.4582 32.1274 42.0852 31.6671 42.0852H27.5555C27.7355 41.8677 27.9213 41.6418 28.1205 41.3985C29.4821 39.7318 31.5372 37.1294 33.5972 34.2261C35.6411 31.4033 37.4807 28.4382 39.1022 25.3536C40.8039 22.0118 41.6672 19.2377 41.6672 17.1077C41.6729 12.6818 39.9167 8.43572 36.7864 5.3068C36.5773 5.09 36.2675 5.00289 35.9761 5.07897C35.6847 5.15504 35.457 5.38239 35.3805 5.6737C35.304 5.96501 35.3907 6.27487 35.6072 6.48425C38.4248 9.30106 40.0055 13.1234 40.0005 17.1076C40.0005 18.9727 39.1989 21.4926 37.6172 24.5968C36.0324 27.61 34.2344 30.5063 32.2372 33.2636C30.2056 36.1294 28.1747 38.6969 26.8289 40.3469C26.3814 40.8952 25.9789 41.3802 25.6355 41.7902C25.4753 41.9733 25.2438 42.0781 25.0006 42.0781C24.7573 42.0781 24.5259 41.9732 24.3656 41.7902C24.0223 41.3803 23.6198 40.8952 23.1723 40.3469C21.8264 38.6978 19.7956 36.1302 17.7639 33.2636C15.7668 30.5063 13.9688 27.61 12.3839 24.5968C10.8006 21.4926 10.0006 18.9727 10.0006 17.1076C10.0001 11.0716 13.6099 5.62057 19.1674 3.26509C22.9015 1.69927 27.1082 1.69927 30.8424 3.26509C31.1166 3.38131 31.432 3.34254 31.6697 3.16314C31.9075 2.98384 32.0316 2.69126 31.9951 2.39566C31.9587 2.10005 31.7674 1.84634 31.4932 1.73013C23.007 -1.84918 13.2259 2.12681 9.64398 10.6118C8.77532 12.6671 8.32981 14.8764 8.33401 17.1076C8.33401 19.2376 9.1974 22.0118 10.8991 25.3577C12.5204 28.441 14.3601 31.4047 16.4038 34.2261Z" fill="#222222"/>
<path d="M25.0004 9.58514C25.4606 9.58514 25.8337 9.21209 25.8337 8.75184C25.8337 8.29158 25.4606 7.91853 25.0004 7.91853C21.0248 7.91844 17.6027 10.7268 16.827 14.6261C16.0513 18.5253 18.1381 22.4294 21.8111 23.9509C25.4841 25.4724 29.7203 24.1873 31.9291 20.8818C34.1379 17.5762 33.704 13.1706 30.8929 10.3594C30.6836 10.1428 30.3738 10.0558 30.0824 10.1321C29.7911 10.2084 29.5636 10.4359 29.4873 10.7272C29.411 11.0186 29.4979 11.3284 29.7145 11.5377C31.9636 13.7866 32.3107 17.311 30.5438 19.9555C28.7769 22.6 25.388 23.6282 22.4496 22.4112C19.5112 21.1942 17.8416 18.0709 18.462 14.9515C19.0823 11.832 21.8199 9.58524 25.0004 9.58514Z" fill="#222222"/>
<path d="M49.6863 45.8943L44.5612 36.7275C44.0979 35.9131 43.2308 35.4125 42.2938 35.4183H36.3546C35.8943 35.4183 35.5213 35.7914 35.5213 36.2517C35.5213 36.7119 35.8943 37.085 36.3546 37.085H42.2938C42.6274 37.0785 42.9386 37.2524 43.1079 37.5399L48.2313 46.7067C48.3708 46.9451 48.3679 47.2409 48.2238 47.4767C48.0535 47.7579 47.7457 47.9264 47.4171 47.9184H2.58367C2.25535 47.9262 1.94792 47.7576 1.7778 47.4767C1.63366 47.2409 1.63083 46.9451 1.77029 46.7067L6.89364 37.5399C7.06269 37.2525 7.37362 37.0786 7.70693 37.085H13.6461C14.1064 37.085 14.4794 36.7119 14.4794 36.2517C14.4794 35.7914 14.1064 35.4183 13.6461 35.4183H7.70702C6.76952 35.4122 5.90174 35.9128 5.43788 36.7275L0.31364 45.8943C-0.113608 46.6489 -0.103745 47.5747 0.339519 48.3201C0.806512 49.1139 1.66286 49.5966 2.58367 49.5852H47.4171C48.3376 49.5963 49.1937 49.1137 49.6605 48.3201C50.1037 47.5746 50.1136 46.6489 49.6863 45.8943Z" fill="#222222"/>
<path d="M40.8338 39.5852H37.5005C37.336 39.5855 37.1751 39.6341 37.038 39.7252L34.538 41.3919C34.1551 41.6474 34.0518 42.1649 34.3071 42.5478C34.5626 42.9307 35.0801 43.034 35.463 42.7787L37.7505 41.252H40.8338C41.2941 41.252 41.6671 40.8788 41.6671 40.4187C41.6671 39.9582 41.2941 39.5852 40.8338 39.5852Z" fill="#222222"/>
<path d="M35.8335 45.4188C35.8335 45.879 36.2065 46.2521 36.6668 46.2521H43.3335C43.7938 46.2521 44.1668 45.879 44.1668 45.4188C44.1668 44.9585 43.7938 44.5854 43.3335 44.5854H36.6668C36.2065 44.5854 35.8335 44.9585 35.8335 45.4188Z" fill="#222222"/>
<path d="M15.0001 42.9185C15.3675 42.919 15.6918 42.6787 15.7986 42.3272C15.9053 41.9756 15.7692 41.5956 15.4635 41.3918L12.9635 39.7251C12.8262 39.6339 12.665 39.5852 12.5001 39.5851H9.1668C8.70654 39.5851 8.3335 39.9582 8.3335 40.4184C8.3335 40.8786 8.70664 41.2517 9.1668 41.2517H12.2501L14.5402 42.7783C14.6764 42.8694 14.8365 42.9181 15.0001 42.9185Z" fill="#222222"/>
<path d="M6.66729 44.5854C6.20703 44.5854 5.83398 44.9585 5.83398 45.4188C5.83398 45.879 6.20703 46.2521 6.66729 46.2521H13.334C13.7943 46.2521 14.1673 45.879 14.1673 45.4188C14.1673 44.9585 13.7943 44.5854 13.334 44.5854H6.66729Z" fill="#222222"/>
</g>
<defs>
<clipPath id="clip0">
<rect width="50" height="50" fill="white"/>
</clipPath>
</defs>
</svg>
