<svg width="70" height="60" viewBox="0 0 70 60" fill="none" xmlns="http://www.w3.org/2000/svg">
<path d="M69.7337 34.9197C69.7315 34.8779 69.7276 34.8359 69.7215 34.7941L66.2129 10.3805C66.1532 9.96498 65.906 9.59994 65.5425 9.39035C65.1791 9.18076 64.7392 9.14959 64.3494 9.30627L48.2026 15.798C47.5019 16.0796 47.1624 16.876 47.4439 17.5765C47.7257 18.2773 48.5222 18.6168 49.2226 18.3352L63.7536 12.493L66.9913 35.021C66.993 35.0845 66.9993 35.1482 67.0101 35.2119C67.7181 39.3793 66.943 43.6919 64.8281 47.3551C62.3925 51.5737 58.4552 54.5888 53.7413 55.8448C49.0261 57.1012 44.0987 56.4476 39.8661 54.0041C39.8369 53.9872 39.8068 53.973 39.7769 53.9585C40.6843 53.2689 41.5378 52.5222 42.3339 51.7235L58.3407 47.4345C59.0702 47.2392 59.503 46.4893 59.3075 45.7599C59.1122 45.0305 58.3619 44.5975 57.633 44.793L45.3166 48.0931C46.6699 46.0798 47.7287 43.8595 48.4522 41.484L59.4406 38.5397C60.1701 38.3444 60.6029 37.5945 60.4074 36.8651C60.2121 36.1357 59.4618 35.7027 58.7329 35.8982L50.6476 38.0647L53.688 32.7984L60.1131 31.0768C60.8426 30.8814 61.2755 30.1315 61.08 29.4022C60.8844 28.6728 60.1343 28.2398 59.4054 28.4353L55.6217 29.4492L58.5311 24.4099C58.9087 23.7558 58.6846 22.9196 58.0307 22.5422C57.3767 22.1645 56.5405 22.3886 56.163 23.0425L53.2536 28.0817L52.2397 24.298C52.0442 23.5686 51.2943 23.1356 50.5652 23.3312C49.8357 23.5265 49.4028 24.2764 49.5983 25.0058L51.3199 31.4309L49.5409 34.5123C49.5934 30.1355 48.4735 25.8103 46.229 21.9228C43.4026 17.0275 38.9422 13.2256 33.6637 11.2114C33.6551 11.2078 33.6462 11.2041 33.6375 11.2004L27.4507 8.6894C26.7504 8.40543 25.9536 8.74258 25.6697 9.44217C25.3857 10.142 25.7227 10.9394 26.4224 11.2233L32.5529 13.7114C32.5807 13.7241 32.609 13.7358 32.6377 13.7468C37.353 15.5324 41.3389 18.9216 43.8608 23.2899C46.7964 28.3747 47.5708 34.3016 46.0412 39.9793C44.6301 45.2164 41.4137 49.6617 36.9211 52.6318L34.6264 48.6573L39.6012 30.0915C39.7967 29.362 39.3638 28.6123 38.6343 28.4168C37.9044 28.2214 37.1553 28.6543 36.9598 29.3837L32.6929 45.3084L27.6308 36.5405L31.0821 23.6605C31.2776 22.931 30.8447 22.1814 30.1152 21.9858C29.3855 21.7903 28.6362 22.2233 28.4407 22.9527L25.6973 33.1913L21.7069 26.2798L23.7854 18.523C23.9809 17.7935 23.5481 17.0439 22.8185 16.8484C22.0887 16.653 21.3395 17.0858 21.144 17.8152L19.7731 22.9306L15.9929 16.3828C15.6154 15.7289 14.7791 15.5047 14.1251 15.8824C13.4711 16.2599 13.247 17.0962 13.6247 17.7502L17.405 24.2978L12.2898 22.9272C11.5602 22.7316 10.8108 23.1646 10.6153 23.894C10.4198 24.6236 10.8526 25.3732 11.5822 25.5687L19.3388 27.6472L23.3292 34.5588L13.0909 31.8155C12.3612 31.62 11.6118 32.053 11.4163 32.7824C11.2208 33.5119 11.6537 34.2615 12.3832 34.4571L25.2629 37.9082L30.3251 46.6762L14.4008 42.4093C13.671 42.2138 12.9217 42.6468 12.7262 43.3762C12.5307 44.1057 12.9636 44.8553 13.6931 45.0508L32.2588 50.0255L34.5532 53.9995C24.2209 59.1491 11.5051 55.4402 5.67305 45.339C3.12379 40.9236 2.18973 35.7255 3.04299 30.7023C3.05461 30.6345 3.06076 30.5669 3.06186 30.4995L6.96614 3.32729L16.0239 7.00352C16.7243 7.28762 17.521 6.95047 17.8049 6.25075C18.0889 5.55088 17.7519 4.75354 17.0522 4.46957L6.37551 0.136136C5.986 -0.0217741 5.54494 0.00803033 5.18045 0.217347C4.81582 0.426663 4.56782 0.792249 4.50793 1.20869L0.329261 30.2852C0.322562 30.3313 0.31846 30.3775 0.316546 30.4233C-0.590993 36.0174 0.467483 41.7924 3.30426 46.7058C7.87244 54.6184 16.196 59.0441 24.7524 59.044C28.5315 59.044 32.3552 58.1773 35.9214 56.3698L37.6018 59.2803C37.8551 59.7188 38.3146 59.9641 38.7873 59.9641C39.0192 59.9641 39.2543 59.9051 39.4696 59.7808C40.1237 59.4033 40.3478 58.567 39.97 57.9131L39.347 56.8338C42.3682 58.4022 45.6636 59.2047 48.9983 59.2047C50.8153 59.2047 52.644 58.9672 54.4455 58.4872C59.8664 57.0426 64.395 53.5746 67.1965 48.7223C69.6012 44.5573 70.4997 39.6622 69.7337 34.9197Z" fill="#222222"/>
</svg>
