<svg width="70" height="70" viewBox="0 0 70 70" fill="none" xmlns="http://www.w3.org/2000/svg">
<g clip-path="url(#clip0)">
<path d="M49.7162 35.8568C49.5955 35.4445 49.2856 35.1077 48.8736 34.9571C48.7905 34.9267 48.1166 34.6883 47.0699 34.5351C51.5417 29.7769 50.0653 24.2178 49.7162 23.1321C49.5955 22.7196 49.2856 22.3829 48.8736 22.2322C48.6817 22.162 45.3347 20.9818 41.5213 22.3089C41.7367 21.4256 41.8626 20.4545 41.8626 19.3889C41.8626 12.5711 36.6997 9.57454 35.6636 9.04257C35.2867 8.83612 34.8291 8.81725 34.4315 9.0021C34.1751 9.12118 28.1521 12.0036 28.1521 19.3889C28.1521 20.4567 28.2786 21.4298 28.4948 22.3145C24.6747 20.9785 21.3187 22.1618 21.1264 22.2322C20.7145 22.3829 20.4046 22.7196 20.2838 23.1321C19.9348 24.2178 18.4584 29.7769 22.9302 34.5351C21.8835 34.6883 21.2096 34.9267 21.1264 34.9571C20.7145 35.1077 20.4044 35.4446 20.2837 35.8569C19.9274 36.9653 18.3954 42.7354 23.2163 47.5564C26.0062 50.3463 29.1026 51.0118 31.4225 51.0118C32.2813 51.0118 33.032 50.9203 33.6231 50.8118V59.7577C33.6231 60.5127 34.2352 61.1249 34.9903 61.1249C35.7454 61.1249 36.3575 60.5127 36.3575 59.7577V50.8084C36.9512 50.9183 37.7093 51.0117 38.5775 51.0117C40.8972 51.0117 43.994 50.3458 46.7836 47.5562C51.6046 42.7351 50.0725 36.9652 49.7162 35.8568ZM33.6231 46.5499C33.5927 47.1704 33.5056 47.692 33.4224 48.067C31.961 48.3917 28.3046 48.7775 25.1499 45.6228C22.0427 42.5158 22.3684 38.92 22.7124 37.351C23.6313 37.1513 25.4243 36.9287 27.4095 37.5729C27.5402 37.6218 27.6705 37.6681 27.8001 37.7111C28.8515 38.1098 29.943 38.7606 30.9776 39.795C32.9489 41.7663 33.5376 43.9333 33.6231 45.6377V46.5499ZM33.6231 33.8253C33.5927 34.4459 33.5056 34.9674 33.4224 35.3423C32.5169 35.5437 30.7688 35.7673 28.8196 35.1589C28.622 35.0827 28.4256 35.0134 28.2305 34.9506C27.2108 34.5479 26.155 33.9031 25.1498 32.8981C22.0427 29.791 22.3684 26.1953 22.7124 24.6265C24.1724 24.309 27.8391 23.9319 30.9776 27.0704C30.9975 27.0904 31.0156 27.1105 31.0351 27.1303C31.155 27.2649 31.2753 27.3935 31.3955 27.5171C33.0319 29.3643 33.5441 31.3366 33.6231 32.9131V33.8253ZM35.0095 26.9656C34.5811 26.6908 33.9636 26.2378 33.3365 25.5831C33.2725 25.5129 33.2079 25.4428 33.1414 25.3729C31.9991 24.1041 30.8864 22.1576 30.8864 19.3889C30.8864 14.9323 33.7383 12.6199 35.0004 11.8149C36.352 12.6798 39.1281 14.9922 39.1281 19.3889C39.1281 22.0016 38.1476 23.8763 37.0823 25.1434C36.8608 25.3651 36.6536 25.5891 36.4582 25.8141C35.9116 26.3456 35.3881 26.7244 35.0095 26.9656ZM36.3659 33.3822C36.364 31.7771 36.7792 29.6531 38.4792 27.6583C38.6806 27.4582 38.8831 27.2428 39.0838 27.0114C42.221 23.9255 45.8348 24.3024 47.287 24.6237C47.6311 26.1912 47.959 29.7892 44.85 32.8981C43.8468 33.9015 42.7929 34.5457 41.7751 34.9487C41.5767 35.0124 41.3769 35.0828 41.176 35.1604C39.227 35.7678 37.48 35.5434 36.5781 35.3427C36.4769 34.8871 36.3698 34.2178 36.3658 33.4171C36.3658 33.4054 36.3659 33.3938 36.3659 33.3822ZM44.85 45.6228C41.6948 48.7781 38.0383 48.3916 36.5803 48.0681C36.2624 46.6137 35.8781 42.9392 39.0224 39.795C40.0283 38.789 41.085 38.1441 42.1055 37.7413C42.3002 37.6787 42.4961 37.6098 42.6931 37.5338C44.6381 36.9268 46.3822 37.1483 47.287 37.3483C47.6311 38.9159 47.959 42.5139 44.85 45.6228Z" fill="#222222"/>
<path d="M42.2948 0.76166C39.9116 0.256348 37.4572 0 35 0C25.6512 0 16.8619 3.64055 10.2513 10.2513C3.64068 16.8619 0 25.6512 0 35C0 42.79 2.6209 50.3941 7.39594 56.5169C6.85877 57.3479 6.56961 58.3159 6.56961 59.329C6.56961 60.7167 7.11006 62.0212 8.09129 63.0026C9.07252 63.9838 10.3772 64.5243 11.7649 64.5243C13.1526 64.5243 14.4573 63.9838 15.4386 63.0026C16.4199 62.0212 16.9602 60.7167 16.9602 59.329C16.9602 57.9413 16.4198 56.6367 15.4386 55.6553C14.4573 54.674 13.1526 54.1335 11.7649 54.1335C10.9424 54.1335 10.1496 54.3248 9.43551 54.6838C5.10809 49.0663 2.73438 42.1177 2.73438 35C2.73438 17.2087 17.2087 2.73438 35 2.73438C37.2671 2.73438 39.5304 2.97062 41.7275 3.43656C42.4666 3.59311 43.1919 3.12129 43.3486 2.38273C43.5053 1.64404 43.0335 0.91834 42.2948 0.76166ZM10.0248 57.5887C10.5045 57.1088 11.1346 56.869 11.7649 56.869C12.3952 56.869 13.0253 57.1089 13.5051 57.5887C13.9699 58.0534 14.2259 58.6715 14.2259 59.3288C14.2259 59.9862 13.9699 60.6041 13.5051 61.069C12.5456 62.0287 10.9843 62.0285 10.0248 61.069C9.55992 60.6043 9.30398 59.9862 9.30398 59.3288C9.30398 58.6715 9.55992 58.0535 10.0248 57.5887Z" fill="#222222"/>
<path d="M62.6042 13.4829C63.1414 12.652 63.4305 11.684 63.4305 10.6709C63.4305 9.28321 62.8901 7.9785 61.9088 6.99727C60.9276 6.0159 59.6229 5.47559 58.2352 5.47559C56.8475 5.47559 55.5428 6.01604 54.5616 6.99727C53.5803 7.9785 53.0399 9.28321 53.0399 10.6709C53.0399 12.0586 53.5803 13.3633 54.5616 14.3445C55.5428 15.3259 56.8475 15.8662 58.2352 15.8662C59.0578 15.8662 59.8505 15.6749 60.5648 15.3159C64.892 20.9336 67.2658 27.8822 67.2658 34.9999C67.2658 52.7912 52.7915 67.2655 35.0001 67.2655C33.0862 67.2655 31.1686 67.0968 29.3006 66.7639C28.5577 66.6317 27.8471 67.1265 27.7148 67.8701C27.5823 68.6134 28.0775 69.3234 28.8209 69.4559C30.8469 69.8168 32.9258 69.9999 35.0001 69.9999C44.349 69.9999 53.1382 66.3592 59.749 59.7487C66.3597 53.1382 70.0001 44.3487 70.0001 34.9999C70.0001 27.2099 67.3792 19.6057 62.6042 13.4829ZM59.9755 12.4111C59.5108 12.8759 58.8927 13.1318 58.2353 13.1318C57.578 13.1318 56.9599 12.876 56.4952 12.4111C55.5356 11.4516 55.5356 9.89037 56.4952 8.93074C56.9599 8.4659 57.578 8.20996 58.2353 8.20996C58.8927 8.20996 59.5107 8.4659 59.9755 8.93074C60.4403 9.39545 60.6963 10.0136 60.6963 10.6709C60.6963 11.3282 60.4403 11.9462 59.9755 12.4111Z" fill="#222222"/>
<path d="M22.9871 64.9552L22.4708 66.2212L22.9832 64.9537C22.2828 64.6709 21.4863 65.0088 21.2033 65.7088C20.9203 66.4088 21.2584 67.2057 21.9584 67.4888L22.0006 67.5055C22.1618 67.5672 22.3278 67.5964 22.491 67.5964C23.0417 67.5964 23.5622 67.2631 23.7706 66.7194C24.0407 66.0141 23.6923 65.2252 22.9871 64.9552Z" fill="#222222"/>
<path d="M48.1009 2.53515L48.0766 2.52544C47.3756 2.2449 46.5799 2.58601 46.2994 3.2871C46.0188 3.9882 46.3599 4.78363 47.061 5.06418L47.0766 5.07046C47.2445 5.13828 47.4177 5.17027 47.5884 5.17027C48.1292 5.17027 48.6414 4.8472 48.8564 4.31496C49.1393 3.61482 48.801 2.81802 48.1009 2.53515Z" fill="#222222"/>
</g>
<defs>
<clipPath id="clip0">
<rect width="70" height="70" fill="white"/>
</clipPath>
</defs>
</svg>
