<svg width="50" height="50" viewBox="0 0 50 50" fill="none" xmlns="http://www.w3.org/2000/svg">
<g clip-path="url(#clip0)">
<path d="M47.8744 1.25146H12.9492C11.7758 1.25283 10.825 2.20365 10.8236 3.37699V13.0102L9.22658 10.6146C8.49554 9.5119 7.02535 9.18105 5.89246 9.86442L2.60669 11.8399C1.53064 12.4713 0.741285 13.4952 0.404483 14.6965C-0.794151 19.0609 0.0952284 26.5803 11.1321 37.6188C19.9092 46.3868 26.4533 48.7482 30.9636 48.7482C32.0078 48.753 33.048 48.6173 34.056 48.3448C35.2568 48.008 36.2807 47.2197 36.9134 46.1451L38.8863 42.8559C39.567 41.7239 39.2364 40.2568 38.1361 39.5259L30.2684 34.2813C29.1891 33.5674 27.7425 33.8022 26.9442 34.8206L24.6536 37.7654C24.4142 38.0806 23.9799 38.1724 23.6333 37.9813L23.1974 37.7412C21.7629 36.9594 19.9775 35.9858 16.3716 32.3799C15.9815 31.9898 15.6281 31.6248 15.2963 31.2755H47.8744C49.0448 31.2763 49.9953 30.3303 49.9999 29.1599V3.37699C49.9985 2.20365 49.0477 1.25283 47.8744 1.25146ZM22.3997 39.205L22.8232 39.4376C23.8876 40.0328 25.2275 39.7566 25.9698 38.7891L28.2604 35.8443C28.5208 35.5125 28.992 35.4361 29.3439 35.6683L37.2117 40.913C37.5691 41.1512 37.6765 41.6281 37.4559 41.9966L35.4829 45.2857C35.0709 45.9923 34.4015 46.5119 33.615 46.7361C29.6749 47.8197 22.779 46.9028 12.3131 36.4361C1.84712 25.9694 0.933715 19.0742 2.01474 15.1374C2.23872 14.351 2.75809 13.6817 3.46422 13.2695L6.75341 11.2956C7.12196 11.0755 7.59854 11.1828 7.83698 11.5398L13.0841 19.4076C13.3167 19.7594 13.2403 20.231 12.9081 20.4912L9.9624 22.7825C8.99507 23.5246 8.71883 24.8642 9.3139 25.9283L9.54726 26.3518C10.3808 27.8805 11.4169 29.7826 15.1937 33.5585C18.9706 37.3346 20.8719 38.3714 22.3997 39.205ZM48.3329 29.16C48.3301 29.4107 48.1251 29.612 47.8745 29.6101H13.7926C12.7101 28.3721 11.7765 27.0114 11.0111 25.5558L10.771 25.1182C10.5795 24.7724 10.6712 24.3385 10.9861 24.0996L13.9318 21.8082C14.9506 21.0101 15.1854 19.5633 14.4711 18.484L12.4907 15.5116V3.37699C12.4893 3.25499 12.5372 3.13757 12.6234 3.05132C12.7097 2.96507 12.8271 2.91721 12.9491 2.91857H47.8744C47.9964 2.91721 48.1138 2.96507 48.2 3.05132C48.2863 3.13757 48.3341 3.25499 48.3328 3.37699V29.16H48.3329Z" fill="#222222"/>
<path d="M45.0037 5.11073L31.0728 15.6758C30.6786 15.9622 30.1449 15.9622 29.7508 15.6758L15.825 5.11073C15.4581 4.83244 14.935 4.90433 14.6568 5.27122C14.3785 5.6381 14.4504 6.16118 14.8173 6.43938L28.7448 17.0036C29.7357 17.7356 31.0881 17.7356 32.079 17.0036L46.0107 6.43938C46.187 6.30575 46.303 6.10746 46.333 5.88826C46.363 5.66907 46.3046 5.44694 46.1707 5.27083C45.8925 4.90462 45.3703 4.83302 45.0037 5.11073Z" fill="#222222"/>
<path d="M23.2987 17.0736L14.76 26.2175C14.4461 26.5542 14.4645 27.0818 14.8012 27.3957C15.138 27.7097 15.6655 27.6912 15.9795 27.3545L24.5183 18.2065C24.8004 17.8661 24.7677 17.3647 24.4439 17.0638C24.1199 16.7628 23.6175 16.7671 23.2987 17.0736Z" fill="#222222"/>
<path d="M37.5801 17.0737C37.2662 16.737 36.7387 16.7184 36.4019 17.0324C36.0652 17.3464 36.0466 17.8739 36.3607 18.2107L44.8969 27.3546C45.2109 27.6913 45.7384 27.7099 46.0752 27.3958C46.4119 27.0819 46.4304 26.5544 46.1164 26.2176L37.5801 17.0737Z" fill="#222222"/>
</g>
<defs>
<clipPath id="clip0">
<rect width="50" height="50" fill="white"/>
</clipPath>
</defs>
</svg>
