<svg width="70" height="70" viewBox="0 0 70 70" fill="none" xmlns="http://www.w3.org/2000/svg">
<g clip-path="url(#clip0)">
<path d="M14.6289 25.9766C14.6289 37.2847 23.8286 46.4844 35.1367 46.4844C46.4449 46.4844 55.6446 37.2847 55.6446 25.9766C55.6446 14.6684 46.4449 5.46875 35.1367 5.46875C23.8286 5.46875 14.6289 14.6684 14.6289 25.9766ZM35.1367 8.20313C44.9373 8.20313 52.9102 16.1761 52.9102 25.9766C52.9102 35.7771 44.9373 43.7501 35.1367 43.7501C25.3362 43.7501 17.3633 35.7771 17.3633 25.9766C17.3633 16.1761 25.3362 8.20313 35.1367 8.20313Z" fill="#222222"/>
<path d="M22.4753 23.5391L27.7748 28.7606L26.5556 36.0991C26.4706 36.6102 26.6816 37.125 27.1008 37.4294C27.5195 37.7338 28.0744 37.775 28.5342 37.5368L35.1368 34.1081L41.7388 37.5368C42.1949 37.7734 42.7498 37.7365 43.1723 37.4294C43.5915 37.125 43.8025 36.6102 43.7175 36.0991L42.4983 28.7606L47.7977 23.5391C48.1668 23.1759 48.2987 22.6355 48.1385 22.1425C47.9783 21.6501 47.5537 21.2907 47.0415 21.2133L39.687 20.1062L36.3593 13.4512C36.128 12.9882 35.6543 12.6956 35.1368 12.6956C34.6188 12.6956 34.1456 12.9882 33.9138 13.4512L30.5861 20.1062L23.2316 21.2133C22.7194 21.2902 22.2948 21.6501 22.1346 22.1425C21.9744 22.6355 22.1068 23.1759 22.4753 23.5391ZM31.6953 22.7044C32.1354 22.6381 32.5157 22.362 32.7149 21.9641L35.1368 17.1197L37.5588 21.9641C37.758 22.362 38.1382 22.6381 38.5783 22.7044L43.9312 23.5102L40.0737 27.3101C39.757 27.6225 39.6117 28.0695 39.6843 28.5085L40.5719 33.8496L35.7665 31.3545C35.5694 31.252 35.3531 31.2007 35.1368 31.2007C34.9205 31.2007 34.7042 31.252 34.5066 31.3545L29.7012 33.8496L30.5888 28.5085C30.6619 28.0695 30.5167 27.6225 30.1994 27.3101L26.3425 23.5102L31.6953 22.7044Z" fill="#222222"/>
<path d="M36.5039 1.36719C36.5039 2.12235 35.8919 2.73438 35.1367 2.73438C34.3816 2.73438 33.7695 2.12235 33.7695 1.36719C33.7695 0.612031 34.3816 0 35.1367 0C35.8919 0 36.5039 0.612031 36.5039 1.36719Z" fill="#222222"/>
<path d="M28.6933 0.805813C17.1924 3.74153 9.16016 14.0921 9.16016 25.9765C9.16016 33.3577 12.2636 40.3128 17.7115 45.2384L9.47472 59.7547C9.20982 60.222 9.24294 60.8009 9.5591 61.2345C9.87526 61.6687 10.4157 61.8775 10.9418 61.7681L20.2958 59.8257L23.5835 69.09C23.7618 69.5941 24.2185 69.9472 24.7515 69.9947C25.2844 70.0422 25.7955 69.7736 26.0599 69.3084L35.1368 53.3508L44.2131 69.3084C44.4577 69.7383 44.9127 69.9995 45.4008 69.9995C45.4409 69.9995 45.4815 69.9979 45.5215 69.9947C46.0545 69.9472 46.5111 69.5936 46.69 69.09L49.9772 59.8257L59.3312 61.7681C59.8567 61.877 60.3977 61.6682 60.7139 61.2345C61.0306 60.8009 61.0632 60.222 60.7983 59.7547L52.5615 45.2384C58.0094 40.3128 61.1128 33.3577 61.1128 25.9765C61.1128 14.0921 53.0806 3.74153 41.5802 0.805813C40.848 0.618893 40.104 1.06056 39.9171 1.79222C39.7302 2.52388 40.1719 3.26836 40.9035 3.45528C51.1927 6.08178 58.379 15.3429 58.379 25.9765C58.379 38.9184 47.8682 49.2188 35.1368 49.2188C22.3963 49.2188 11.8945 38.9098 11.8945 25.9765C11.8945 15.3429 19.0803 6.08178 29.3695 3.45528C30.1011 3.26836 30.5428 2.52388 30.3564 1.79222C30.1695 1.06056 29.4255 0.618893 28.6933 0.805813ZM25.1611 65.3591L22.4742 57.7877C22.2457 57.1436 21.577 56.7671 20.9078 56.906L13.344 58.4767L19.8627 46.988C23.6636 49.7512 28.1641 51.4346 32.844 51.8511L25.1611 65.3591ZM49.3651 56.906C48.6965 56.7671 48.0273 57.1436 47.7987 57.7877L45.1124 65.3591L37.4289 51.8511C42.1094 51.4346 46.6094 49.7512 50.4108 46.988L56.9295 58.4767L49.3651 56.906Z" fill="#222222"/>
</g>
<defs>
<clipPath id="clip0">
<rect width="70" height="70" fill="white"/>
</clipPath>
</defs>
</svg>
