<svg width="18" height="18" viewBox="0 0 18 18" fill="none" xmlns="http://www.w3.org/2000/svg">
<path d="M7.41913 14.8246C3.33197 14.8246 0.00683594 11.4995 0.00683594 7.41229C0.00683594 3.32513 3.33197 0 7.41913 0C11.5063 0 14.8314 3.32513 14.8314 7.41229C14.8314 11.4995 11.5063 14.8246 7.41913 14.8246ZM7.41913 1.40517C4.10678 1.40517 1.41201 4.09995 1.41201 7.41229C1.41201 10.7246 4.10678 13.4194 7.41913 13.4194C10.7315 13.4194 13.4263 10.7246 13.4263 7.41229C13.4263 4.09995 10.7315 1.40517 7.41913 1.40517ZM17.7873 17.7942C18.0617 17.5198 18.0617 17.0749 17.7873 16.8006L14.6432 13.6565C14.3688 13.3821 13.924 13.3821 13.6496 13.6565C13.3752 13.9309 13.3752 14.3758 13.6496 14.6501L16.7937 17.7942C16.9309 17.9314 17.1107 18 17.2905 18C17.4703 18 17.6501 17.9314 17.7873 17.7942Z" fill="#222222"/>
</svg>
