<svg width="50" height="50" viewBox="0 0 50 50" fill="none" xmlns="http://www.w3.org/2000/svg">
<path d="M11.1953 35.1011C10.2693 35.1011 9.51172 35.8587 9.51172 36.7847C9.51172 37.7106 10.2693 38.4682 11.1953 38.4682C12.1212 38.4682 12.8788 37.7106 12.8788 36.7847C12.8788 35.8587 12.1212 35.1011 11.1953 35.1011Z" fill="#222222"/>
<path d="M39.8989 35.1011C38.9729 35.1011 38.2153 35.8587 38.2153 36.7847C38.2153 37.7106 38.9729 38.4682 39.8989 38.4682C40.8248 38.4682 41.5824 37.7106 41.5824 36.7847C41.5824 35.8587 40.8248 35.1011 39.8989 35.1011Z" fill="#222222"/>
<path d="M37.3739 29.2089H35.6904C35.1853 29.2089 34.8486 29.5456 34.8486 30.0506C34.8486 30.5557 35.1853 30.8924 35.6904 30.8924H37.3739C37.8789 30.8924 38.2156 30.5557 38.2156 30.0506C38.2156 29.5456 37.8789 29.2089 37.3739 29.2089Z" fill="#222222"/>
<path d="M48.9058 27.4411L45.6229 26.0943L43.5185 17.6767C43.266 16.4982 42.2559 15.7407 41.0774 15.7407H36.6555C37.7602 12.3442 38.1813 9.39774 38.2155 9.09086C38.2155 8.83834 38.1313 8.66995 38.0471 8.41743C37.8787 8.24904 37.6262 8.1649 37.3736 8.1649H6.98657C6.56566 8.1649 6.22899 8.41743 6.22899 8.83833L5.74416 11.532H2.69364C2.18859 11.532 1.85192 11.8686 1.85192 12.3737C1.85192 12.8787 2.18859 13.2154 2.69364 13.2154H5.44113L5.1381 14.8989H2.10434C1.59929 14.8989 1.26263 15.2356 1.26263 15.7407C1.26263 16.2457 1.59929 16.5824 2.10434 16.5824H4.83497L4.53194 18.2659H1.51515C1.0101 18.2659 0.673434 18.6026 0.673434 19.1076C0.673434 19.6127 1.0101 19.9493 1.51515 19.9493H4.22891L3.92588 21.6329H0.841718C0.336667 21.6329 0 21.9696 0 22.4746C0 22.9797 0.336667 23.3163 0.841718 23.3163H3.62285L3.19859 25.6732C3.17994 25.7292 3.17077 25.7851 3.16771 25.8403L1.17848 36.6161C1.09434 36.8686 1.09434 37.037 1.26263 37.2895C1.43101 37.5421 1.68353 37.6262 1.93606 37.6262H6.21686C6.6208 40.0069 8.70433 41.835 11.1954 41.835C13.6864 41.835 15.7699 40.0069 16.1738 37.6262H34.9205C35.3244 40.0069 37.408 41.835 39.899 41.835C42.39 41.835 44.4735 40.0069 44.8775 37.6262H48.3165C49.2424 37.6262 50 36.8686 50 35.9427V29.0404C50 28.2828 49.5791 27.6936 48.9058 27.4411ZM14.6465 21.633H5.64907L5.94835 19.9494H15.3198C15.7407 19.9494 16.1615 19.6128 16.1615 19.1077C16.1615 18.6027 15.8249 18.266 15.3198 18.266H6.24763L6.54691 16.5825H15.9091C16.4141 16.5825 16.7508 16.2458 16.7508 15.7408C16.7508 15.2357 16.4141 14.899 15.9091 14.899H6.8462L7.14548 13.2155H16.4983C17.0033 13.2155 17.34 12.8788 17.34 12.3738C17.34 11.8687 17.0033 11.5321 16.4983 11.5321H7.44486L7.74414 9.84854H36.3636C36.1164 11.2966 35.5132 14.1968 34.3993 17.0758C33.0205 20.5936 30.7234 24.429 27.2282 24.9419C27.2055 24.9451 27.1826 24.9483 27.1597 24.9513C27.1111 24.9578 27.0624 24.9642 27.0134 24.9694C26.9363 24.9774 26.8585 24.9838 26.7802 24.9885C26.7541 24.9902 26.7277 24.9914 26.7014 24.9927C26.6118 24.9969 26.522 25 26.4309 25H5.05051L5.34979 23.3165H14.7306C15.1515 23.3165 15.4882 22.9798 15.4882 22.4748C15.4882 21.9697 15.1515 21.633 14.6465 21.633ZM11.1953 40.1515C9.34343 40.1515 7.82828 38.6363 7.82828 36.7845C7.82828 34.9327 9.34343 33.4175 11.1953 33.4175C13.0471 33.4175 14.5622 34.9327 14.5622 36.7845C14.5622 38.6363 13.0472 40.1515 11.1953 40.1515ZM39.899 40.1515C38.0472 40.1515 36.532 38.6363 36.532 36.7845C36.532 34.9327 38.0472 33.4175 39.899 33.4175C41.7508 33.4175 43.266 34.9327 43.266 36.7845C43.266 38.6363 41.7508 40.1515 39.899 40.1515ZM48.3165 35.9427H44.8775C44.4735 33.562 42.39 31.7339 39.899 31.7339C39.8857 31.7339 39.8726 31.7348 39.8592 31.7349C39.8443 31.7348 39.8297 31.7339 39.8148 31.7339C37.2896 31.7339 35.2694 33.5857 34.8485 35.9427H16.1737C15.8896 34.2676 14.7737 32.8672 13.2691 32.1837C13.2358 32.1685 13.2027 32.1528 13.169 32.1382C13.1478 32.1292 13.1263 32.1209 13.1049 32.1121C13.0504 32.0895 12.9957 32.0675 12.9402 32.0469C12.9251 32.0413 12.9099 32.0361 12.8947 32.0306C12.833 32.0083 12.771 31.9871 12.7082 31.9672C12.6946 31.9628 12.681 31.9588 12.6673 31.9547C12.6034 31.935 12.5389 31.9165 12.4738 31.8994C12.4594 31.8957 12.445 31.8919 12.4305 31.8883C12.3665 31.8721 12.3021 31.8571 12.2372 31.8434C12.2208 31.8399 12.2045 31.8364 12.1881 31.8331C12.1255 31.8205 12.0622 31.8093 11.9986 31.7991C11.9798 31.796 11.9609 31.7928 11.942 31.7899C11.8807 31.7807 11.8189 31.7732 11.7568 31.7662C11.7358 31.7639 11.7149 31.7611 11.6938 31.7589C11.6317 31.7528 11.5692 31.7484 11.5065 31.7445C11.4858 31.7433 11.4653 31.7413 11.4445 31.7403C11.362 31.7363 11.2788 31.7339 11.1951 31.7339C11.1113 31.7339 11.0282 31.7363 10.9456 31.7403C10.9249 31.7413 10.9044 31.7433 10.8836 31.7445C10.8209 31.7484 10.7584 31.7528 10.6963 31.7589C10.6752 31.761 10.6543 31.7639 10.6333 31.7662C10.5712 31.7732 10.5094 31.7808 10.4481 31.7899C10.4292 31.7928 10.4105 31.796 10.3915 31.7991C10.3279 31.8094 10.2648 31.8206 10.202 31.8331C10.1855 31.8365 10.1693 31.8399 10.1529 31.8434C10.088 31.8571 10.0236 31.8721 9.95966 31.8883C9.94525 31.8919 9.93075 31.8956 9.91635 31.8994C9.85125 31.9166 9.78673 31.935 9.72281 31.9548C9.7092 31.9589 9.69559 31.9629 9.68198 31.9673C9.61914 31.9872 9.557 32.0085 9.49534 32.0308C9.48025 32.0362 9.46496 32.0414 9.44997 32.047C9.39443 32.0677 9.33959 32.0897 9.28504 32.1123C9.26383 32.1211 9.24233 32.1293 9.22122 32.1383C9.18738 32.1529 9.15414 32.1686 9.1207 32.184C7.6164 32.8676 6.50065 34.2679 6.21656 35.9428H2.94616L4.71384 26.6835H26.431C26.5501 26.6835 26.6677 26.68 26.7844 26.6745C26.7924 26.6741 26.8003 26.6739 26.8083 26.6735C31.4826 26.4386 34.3636 21.8556 36.061 17.4243H41.0775C41.4984 17.4243 41.835 17.761 41.9192 18.0977L43.8368 25.8419H40.1515C39.5623 25.8419 39.0573 25.3368 39.0573 24.7476V20.7914C39.0573 20.2863 38.7206 19.9496 38.2156 19.9496C37.7105 19.9496 37.3738 20.2863 37.3738 20.7914V24.7476C37.3738 26.2628 38.6365 27.5254 40.1516 27.5254H44.6129L48.3167 28.9564V35.9427H48.3165Z" fill="#222222"/>
</svg>
