<svg width="50" height="50" viewBox="0 0 50 50" fill="none" xmlns="http://www.w3.org/2000/svg">
<path d="M46.875 30.4688H35.1562V21.4172L47.857 8.71641C48.7352 7.83828 49.2188 6.67109 49.2188 5.42969C49.2188 2.86641 47.1336 0.78125 44.5703 0.78125C43.3289 0.78125 42.1617 1.26484 41.2836 2.14219L35.1562 8.26953V6.25C35.1562 4.09609 33.4039 2.34375 31.25 2.34375H25.6375C25.3141 1.43672 24.4547 0.78125 23.4375 0.78125H12.5C11.4828 0.78125 10.6234 1.43672 10.3 2.34375H4.6875C2.53359 2.34375 0.78125 4.09609 0.78125 6.25V39.0625C0.78125 41.2164 2.53359 42.9688 4.6875 42.9688H25.7812V46.875C25.7812 48.1672 26.8328 49.2188 28.125 49.2188H46.875C48.1672 49.2188 49.2188 48.1672 49.2188 46.875V32.8125C49.2188 31.5203 48.1672 30.4688 46.875 30.4688ZM38.2812 33.5938V35.1562H36.7188V33.5938H35.1562V35.1562H33.5938V32.0312H41.4062V35.1562H39.8438V33.5938H38.2812ZM25.7812 32.8125V38.2812H5.46875V7.03125H10.3C10.6234 7.93828 11.4828 8.59375 12.5 8.59375H23.4375C24.4547 8.59375 25.3141 7.93828 25.6375 7.03125H30.4688V12.9578L21.9844 21.4422L19.6656 27.625C19.5766 27.8617 19.5312 28.1102 19.5312 28.3648C19.5312 29.525 20.475 30.4688 21.6352 30.4688C21.8891 30.4688 22.1383 30.4234 22.3734 30.3352L28.557 28.0156L30.4688 26.1047V30.4688H28.125C26.8328 30.4688 25.7812 31.5203 25.7812 32.8125ZM28.125 26.2391L26.4953 24.6094L39.4531 11.6516L41.0828 13.2812L28.125 26.2391ZM22.9617 23.2852L26.7148 27.0383L21.8242 28.8727C21.493 28.9953 21.0938 28.7281 21.0938 28.3648C21.0938 28.2992 21.1055 28.2359 21.1281 28.1758L22.9617 23.2852ZM37.8234 7.8125L39.0625 6.57344L43.4266 10.9375L42.1875 12.1766L37.8234 7.8125ZM38.3484 10.5469L25.3906 23.5047L23.7609 21.875L36.7188 8.91719L38.3484 10.5469ZM33.5938 30.4688H32.0312V24.5422L33.5938 22.9797V30.4688ZM42.3883 3.24766C42.9711 2.66484 43.7461 2.34375 44.5703 2.34375C46.2719 2.34375 47.6562 3.72812 47.6562 5.42969C47.6562 6.25391 47.3352 7.02891 46.7523 7.61172L44.5312 9.83281L40.1672 5.46875L42.3883 3.24766ZM33.5938 6.25V9.83203L32.0312 11.3945V7.03125C32.0312 6.16953 31.3305 5.46875 30.4688 5.46875H25.7812V3.90625H31.25C32.5422 3.90625 33.5938 4.95781 33.5938 6.25ZM11.7188 3.125C11.7188 2.69453 12.0688 2.34375 12.5 2.34375H23.4375C23.8687 2.34375 24.2188 2.69453 24.2188 3.125V6.25C24.2188 6.68047 23.8687 7.03125 23.4375 7.03125H12.5C12.0688 7.03125 11.7188 6.68047 11.7188 6.25V3.125ZM4.6875 41.4062C3.39531 41.4062 2.34375 40.3547 2.34375 39.0625V6.25C2.34375 4.95781 3.39531 3.90625 4.6875 3.90625H10.1562V5.46875H5.46875C4.60703 5.46875 3.90625 6.16953 3.90625 7.03125V38.2812C3.90625 39.143 4.60703 39.8438 5.46875 39.8438H25.7812V41.4062H4.6875ZM47.6562 46.875C47.6562 47.3063 47.3063 47.6562 46.875 47.6562H28.125C27.6938 47.6562 27.3438 47.3063 27.3438 46.875V32.8125C27.3438 32.3813 27.6938 32.0312 28.125 32.0312H32.0312V36.7188H42.9688V32.0312H46.875C47.3063 32.0312 47.6562 32.3813 47.6562 32.8125V46.875Z" fill="#222222"/>
<path d="M38.2812 44.5312H39.8438V46.0938H38.2812V44.5312Z" fill="#222222"/>
<path d="M44.5312 44.5312H46.0938V46.0938H44.5312V44.5312Z" fill="#222222"/>
<path d="M41.4062 44.5312H42.9688V46.0938H41.4062V44.5312Z" fill="#222222"/>
<path d="M38.2812 41.4062H46.0938V42.9688H38.2812V41.4062Z" fill="#222222"/>
<path d="M15.8539 8.82227L14.5203 10.1559H7.03125V17.9684H14.8438V12.0418L16.9586 9.92695L15.8539 8.82227ZM13.2813 16.4059H8.59375V11.7184H12.9578L10.9375 13.7387L9.92734 12.7285L8.82266 13.8332L10.9375 15.948L13.2813 13.6043V16.4059Z" fill="#222222"/>
<path d="M7.03125 27.3438H14.8438V19.5312H7.03125V27.3438ZM8.59375 21.0938H13.2812V25.7812H8.59375V21.0938Z" fill="#222222"/>
<path d="M7.03125 36.7188H14.8438V28.9062H7.03125V36.7188ZM8.59375 30.4688H13.2812V35.1562H8.59375V30.4688Z" fill="#222222"/>
<path d="M17.9688 10.1562H24.2188V11.7188H17.9688V10.1562Z" fill="#222222"/>
<path d="M17.9688 13.2812H24.2188V14.8438H17.9688V13.2812Z" fill="#222222"/>
<path d="M17.9688 16.4062H24.2188V17.9688H17.9688V16.4062Z" fill="#222222"/>
<path d="M17.9688 32.0312H24.2188V33.5938H17.9688V32.0312Z" fill="#222222"/>
<path d="M17.9688 35.1562H24.2188V36.7188H17.9688V35.1562Z" fill="#222222"/>
</svg>
