<svg width="50" height="50" viewBox="0 0 50 50" fill="none" xmlns="http://www.w3.org/2000/svg">
<g clip-path="url(#clip0)">
<path d="M47.707 17.7537H42.7884L40.3019 8.00294C39.9895 6.77775 38.7385 6.03546 37.5136 6.34767L31.8447 7.79317C31.4624 7.89064 31.2315 8.2797 31.3289 8.66202C31.4265 9.04434 31.8154 9.27511 32.1978 9.17784L37.8666 7.73234C38.3286 7.61486 38.7996 7.89444 38.9174 8.35606L39.1928 9.43624L1.73142 18.9886L1.45603 17.9085C1.399 17.6849 1.43249 17.4523 1.55026 17.2539C1.66814 17.0555 1.85622 16.9147 2.07985 16.8577L27.8473 10.2871C28.2296 10.1897 28.4606 9.80059 28.3631 9.41827C28.2655 9.03595 27.8768 8.80518 27.4943 8.90245L1.72673 15.473C0.501536 15.7854 -0.24104 17.0363 0.0713613 18.2614L5.35534 38.9832C5.6195 40.0191 6.55436 40.71 7.5775 40.7099C7.76441 40.7099 7.95445 40.6868 8.14371 40.6385L8.48199 40.5523V41.4315C8.48199 42.6958 9.5106 43.7245 10.775 43.7245H47.707C48.9714 43.7245 50 42.6958 50 41.4315V20.0467C50 18.7823 48.9714 17.7537 47.707 17.7537ZM8.48209 39.0777L7.79078 39.254C7.32916 39.3717 6.85777 39.0918 6.74 38.6302L3.50563 25.9463L8.48209 24.6773V39.0777ZM8.48209 20.0466V23.2027L3.15261 24.5617L2.08454 20.373L8.98755 18.6128C8.67173 19.0058 8.48209 19.5044 8.48209 20.0466ZM41.3138 17.7536H35.6344L40.967 16.3938L41.3138 17.7536ZM39.5459 10.8206L40.614 15.0093L29.8516 17.7537H12.357L39.5459 10.8206ZM47.707 42.2955H10.7751C10.2986 42.2955 9.91089 41.908 9.91089 41.4315V39.6329V20.0467C9.91089 19.5702 10.2985 19.1826 10.7751 19.1826H47.707C48.1835 19.1826 48.5711 19.5702 48.5711 20.0467V41.4315C48.5711 41.908 48.1835 42.2955 47.707 42.2955Z" fill="#999999"/>
<path d="M28.4515 35.3408H12.8844C12.4898 35.3408 12.1699 35.6606 12.1699 36.0553C12.1699 36.4499 12.4898 36.7697 12.8844 36.7697H28.4515C28.846 36.7697 29.166 36.4499 29.166 36.0553C29.166 35.6607 28.8461 35.3408 28.4515 35.3408Z" fill="#999999"/>
<path d="M40.3574 22.7783C39.3312 22.7783 38.3816 23.1096 37.6076 23.6694C36.81 23.0916 35.8533 22.7783 34.8549 22.7783C32.2613 22.7783 30.1514 24.8883 30.1514 27.4818C30.1516 30.0753 32.2615 32.1852 34.855 32.1852C35.8534 32.1852 36.81 31.872 37.6076 31.2941C38.3816 31.854 39.3313 32.1852 40.3574 32.1852C42.9509 32.1852 45.0608 30.0753 45.0608 27.4818C45.0608 24.8883 42.9509 22.7783 40.3574 22.7783ZM35.6597 27.7048C35.6605 27.7231 35.6618 27.7414 35.6629 27.7598C35.6663 27.8196 35.6709 27.8793 35.6766 27.9388C35.6779 27.9526 35.6792 27.9665 35.6807 27.9804C35.7678 28.8159 36.0725 29.6008 36.5697 30.2712C36.058 30.587 35.4677 30.7562 34.855 30.7562C33.0493 30.7562 31.5804 29.2873 31.5804 27.4817C31.5805 25.6763 33.0494 24.2072 34.855 24.2072C35.4677 24.2072 36.058 24.3765 36.5697 24.6923C36.0726 25.3627 35.7678 26.1476 35.6807 26.9831C35.6792 26.997 35.6779 27.0107 35.6766 27.0246C35.6709 27.0841 35.6664 27.1437 35.6629 27.2036C35.6618 27.222 35.6605 27.2401 35.6597 27.2585C35.6562 27.3326 35.654 27.4069 35.654 27.4816C35.654 27.5563 35.6562 27.6307 35.6597 27.7048ZM40.3576 30.7563C39.4636 30.7563 38.6524 30.3959 38.0609 29.8131C38.0487 29.8011 38.0367 29.789 38.0247 29.7767C37.9974 29.749 37.9704 29.721 37.9441 29.6923C37.9369 29.6844 37.9298 29.6764 37.9225 29.6683C37.8917 29.634 37.8612 29.5992 37.8318 29.5636C37.8316 29.5634 37.8315 29.5632 37.8313 29.563C37.364 28.9968 37.083 28.2714 37.083 27.4816C37.0829 26.692 37.364 25.9666 37.8314 25.4003C37.8315 25.4002 37.8316 25.4001 37.8317 25.3999C37.8612 25.3642 37.8918 25.3294 37.9227 25.2949C37.9299 25.287 37.9369 25.2791 37.9441 25.2713C37.9705 25.2425 37.9975 25.2144 38.0249 25.1866C38.0368 25.1745 38.0487 25.1625 38.0608 25.1506C38.6523 24.5678 39.4636 24.2072 40.3576 24.2072C42.1632 24.2072 43.6321 25.6762 43.6321 27.4818C43.6321 29.2874 42.1632 30.7563 40.3576 30.7563Z" fill="#999999"/>
<path d="M17.9756 23.2427H14.8422C13.3687 23.2427 12.1699 24.4414 12.1699 25.9149V29.0483C12.1698 30.5219 13.3687 31.7206 14.8422 31.7206H17.9756C19.449 31.7206 20.6478 30.5219 20.6478 29.0483V25.9149C20.6478 24.4415 19.4491 23.2427 17.9756 23.2427ZM19.2188 27.8654H17.6947C17.3002 27.8654 16.9803 28.1853 16.9803 28.5799C16.9803 28.9745 17.3001 29.2943 17.6947 29.2943H19.1942C19.0797 29.8625 18.5768 30.2918 17.9755 30.2918H14.8421C14.2406 30.2918 13.7378 29.8626 13.6233 29.2943H15.1228C15.5174 29.2943 15.8373 28.9745 15.8373 28.5799C15.8373 28.1853 15.5175 27.8654 15.1228 27.8654H13.5987V27.2463H15.1228C15.5174 27.2463 15.8373 26.9265 15.8373 26.5318C15.8373 26.1373 15.5175 25.8174 15.1228 25.8174H13.6036C13.6536 25.1773 14.1894 24.6715 14.8421 24.6715H17.9755C18.6282 24.6715 19.1639 25.1773 19.214 25.8174H17.6947C17.3002 25.8174 16.9803 26.1372 16.9803 26.5318C16.9803 26.9264 17.3001 27.2463 17.6947 27.2463H19.2188V27.8654Z" fill="#999999"/>
<path d="M45.2264 38.4844H20.3502C19.9557 38.4844 19.6357 38.8042 19.6357 39.1988C19.6357 39.5935 19.9556 39.9133 20.3502 39.9133H45.2264C45.6209 39.9133 45.9409 39.5935 45.9409 39.1988C45.9409 38.8042 45.621 38.4844 45.2264 38.4844Z" fill="#999999"/>
<path d="M15.7958 38.4844H12.8844C12.4898 38.4844 12.1699 38.8042 12.1699 39.1988C12.1699 39.5935 12.4897 39.9133 12.8844 39.9133H15.7958C16.1903 39.9133 16.5103 39.5935 16.5103 39.1988C16.5103 38.8042 16.1903 38.4844 15.7958 38.4844Z" fill="#999999"/>
</g>
<defs>
<clipPath id="clip0">
<rect width="50" height="50" fill="white"/>
</clipPath>
</defs>
</svg>
