<svg width="50" height="50" viewBox="0 0 50 50" fill="none" xmlns="http://www.w3.org/2000/svg">
<g clip-path="url(#clip0)">
<path d="M47.3531 23.1699C47.3531 13.7987 41.7078 5.34963 33.0495 1.76342C24.3916 -1.82279 14.4257 0.159271 7.79876 6.78626C-0.15251 14.7443 -1.2406 27.2635 5.21966 36.4735C11.6795 45.6836 23.8208 48.924 34.011 44.1572L33.8137 48.8375C33.8137 48.849 33.8133 48.8605 33.8133 48.872C33.8121 49.3115 34.0665 49.7112 34.4647 49.897C34.8621 50.0808 35.3305 50.0133 35.6592 49.7243L40.0361 45.9531L44.4147 49.7255C44.743 50.0137 45.211 50.0812 45.6076 49.897C46.0057 49.7112 46.2602 49.3111 46.259 48.8716C46.259 48.8605 46.259 48.849 46.2586 48.8375L45.839 38.8783C49.4756 35.782 50.031 30.3721 47.0998 26.6013C47.2681 25.4656 47.3527 24.3183 47.3531 23.1699ZM24.1828 44.7142C12.3032 44.7142 2.63857 35.05 2.63857 23.1699C2.63857 11.2903 12.3032 1.62567 24.1828 1.62567C36.0625 1.62567 45.7271 11.2903 45.7271 23.1699C45.7271 23.8194 45.6965 24.4696 45.6393 25.1155C44.0558 23.8337 42.0797 23.135 40.0425 23.137C39.2156 23.1386 38.3927 23.2537 37.5972 23.4788V16.9629C37.5944 16.6092 37.3645 16.2968 37.0271 16.1892L25.2491 12.3914C25.0863 12.3394 24.9113 12.3394 24.7485 12.3914L12.9657 16.1892C12.6279 16.2968 12.3976 16.6088 12.3945 16.9629V33.0354C12.3972 33.3895 12.6271 33.7015 12.9645 33.8091L24.7425 37.6069C24.9057 37.6593 25.0812 37.6593 25.2439 37.6069L31.774 35.5013C32.3171 36.8046 33.1595 37.9617 34.2333 38.8787L34.0892 42.305C31.027 43.8877 27.6301 44.7142 24.1828 44.7142ZM31.0996 32.0799C31.0984 32.7079 31.1635 33.3343 31.2937 33.9488L25.4023 35.8479V21.4836L35.9712 18.0792V24.1219C32.9669 25.6331 31.079 28.7172 31.0996 32.0799ZM14.0204 18.0796L23.7763 21.2216V35.5855L14.0204 32.4435V18.0796ZM24.9958 19.9064L15.8691 16.9629L24.9958 14.0198L34.1225 16.9629L24.9958 19.9064ZM44.5842 47.7256L40.79 44.4561C40.3668 44.0564 39.7055 44.0564 39.2823 44.4561L35.4881 47.7256L35.8152 39.9621C38.4514 41.3765 41.6208 41.3765 44.2571 39.9621L44.5842 47.7256ZM40.0361 39.3968C35.995 39.3968 32.7192 36.121 32.7192 32.0799C32.7192 28.0387 35.995 24.763 40.0361 24.763C44.0773 24.763 47.3531 28.0387 47.3531 32.0799C47.3487 36.119 44.0753 39.3924 40.0361 39.3968Z" fill="#999999"/>
<path d="M43.6588 28.5491L38.8559 33.3516L36.4153 30.8872C36.0986 30.5736 35.5881 30.5736 35.2713 30.8872C34.9545 31.2012 34.9493 31.7113 35.2598 32.0313L38.2755 35.1002C38.4252 35.2606 38.632 35.3559 38.8511 35.365H38.8523C39.0711 35.3563 39.2779 35.2622 39.4279 35.103L44.8084 29.7106C45.1296 29.393 45.132 28.8758 44.8144 28.555C44.4972 28.2339 43.9796 28.2315 43.6588 28.5491Z" fill="#999999"/>
</g>
<defs>
<clipPath id="clip0">
<rect width="50" height="50" fill="white"/>
</clipPath>
</defs>
</svg>
