<svg width="16" height="16" viewBox="0 0 16 16" fill="none" xmlns="http://www.w3.org/2000/svg">
<g clip-path="url(#clip0)">
<path d="M15.6374 2.96199C15.3861 3.07347 15.1276 3.16756 14.8636 3.24395C15.1762 2.8904 15.4145 2.4744 15.56 2.01918C15.5927 1.91714 15.5589 1.80545 15.475 1.73871C15.3912 1.67192 15.2748 1.66392 15.1826 1.71858C14.6218 2.05118 14.0168 2.2902 13.3824 2.42996C12.7434 1.80555 11.8755 1.4502 10.9783 1.4502C9.08434 1.4502 7.54349 2.991 7.54349 4.88488C7.54349 5.03404 7.55293 5.18238 7.57162 5.32865C5.22143 5.1223 3.0365 3.96715 1.53611 2.12669C1.48264 2.06109 1.40027 2.02573 1.31593 2.03249C1.23155 2.0391 1.15573 2.08669 1.11309 2.15982C0.808784 2.68199 0.647907 3.2792 0.647907 3.88684C0.647907 4.71445 0.943391 5.49969 1.46535 6.11327C1.30664 6.0583 1.15263 5.9896 1.00564 5.908C0.92672 5.86408 0.83041 5.86475 0.75201 5.90971C0.673559 5.95466 0.624372 6.03734 0.622307 6.12772C0.621946 6.14294 0.621946 6.15817 0.621946 6.1736C0.621946 7.40896 1.28682 8.52116 2.30334 9.12736C2.21601 9.11863 2.12873 9.10599 2.04202 9.08942C1.95263 9.07234 1.86071 9.10367 1.80042 9.17185C1.74004 9.23998 1.72006 9.33494 1.74788 9.42165C2.12414 10.5964 3.09286 11.4604 4.26396 11.7238C3.29265 12.3322 2.18189 12.6509 1.01586 12.6509C0.772552 12.6509 0.527856 12.6366 0.288372 12.6082C0.169404 12.5941 0.0556496 12.6643 0.0151335 12.7775C-0.0253826 12.8907 0.0175593 13.0169 0.118772 13.0817C1.61673 14.0422 3.34881 14.5499 5.12765 14.5499C8.62462 14.5499 10.8122 12.9008 12.0316 11.5174C13.5521 9.79249 14.4242 7.50929 14.4242 5.25334C14.4242 5.1591 14.4227 5.06392 14.4198 4.96906C15.0197 4.51709 15.5362 3.97009 15.9565 3.3414C16.0203 3.24591 16.0134 3.11972 15.9395 3.03182C15.8656 2.94387 15.7425 2.91543 15.6374 2.96199Z" fill="#999999"/>
</g>
<defs>
<clipPath id="clip0">
<rect width="16" height="16" fill="white"/>
</clipPath>
</defs>
</svg>
