<svg width="20" height="20" viewBox="0 0 20 20" fill="none" xmlns="http://www.w3.org/2000/svg">
<path fill-rule="evenodd" clip-rule="evenodd" d="M3.77923 12.946C4.54501 12.1802 5.58362 11.75 6.66658 11.75H13.3333C14.4162 11.75 15.4548 12.1802 16.2206 12.946C16.9864 13.7118 17.4166 14.7504 17.4166 15.8333V17.5C17.4166 17.9142 17.0808 18.25 16.6666 18.25C16.2524 18.25 15.9166 17.9142 15.9166 17.5V15.8333C15.9166 15.1482 15.6444 14.4911 15.1599 14.0066C14.6755 13.5222 14.0184 13.25 13.3333 13.25H6.66658C5.98144 13.25 5.32436 13.5222 4.83989 14.0066C4.35542 14.4911 4.08325 15.1482 4.08325 15.8333V17.5C4.08325 17.9142 3.74747 18.25 3.33325 18.25C2.91904 18.25 2.58325 17.9142 2.58325 17.5V15.8333C2.58325 14.7504 3.01346 13.7118 3.77923 12.946Z" fill="#222222"/>
<path fill-rule="evenodd" clip-rule="evenodd" d="M10.0001 3.25C8.57335 3.25 7.41675 4.4066 7.41675 5.83333C7.41675 7.26007 8.57335 8.41667 10.0001 8.41667C11.4268 8.41667 12.5834 7.26007 12.5834 5.83333C12.5834 4.4066 11.4268 3.25 10.0001 3.25ZM5.91675 5.83333C5.91675 3.57817 7.74492 1.75 10.0001 1.75C12.2552 1.75 14.0834 3.57817 14.0834 5.83333C14.0834 8.0885 12.2552 9.91667 10.0001 9.91667C7.74492 9.91667 5.91675 8.0885 5.91675 5.83333Z" fill="#222222"/>
</svg>
