<svg width="11" height="12" viewBox="0 0 11 12" fill="none" xmlns="http://www.w3.org/2000/svg">
<path d="M7.21875 5.21875C6.69792 5.73958 6.0625 6 5.3125 6C4.58333 6 3.95833 5.73958 3.4375 5.21875C2.91667 4.69792 2.65625 4.07292 2.65625 3.34375C2.65625 2.59375 2.91667 1.95833 3.4375 1.4375C3.95833 0.916667 4.58333 0.65625 5.3125 0.65625C6.0625 0.65625 6.69792 0.916667 7.21875 1.4375C7.73958 1.95833 8 2.59375 8 3.34375C8 4.07292 7.73958 4.69792 7.21875 5.21875ZM3.15625 7.625C3.94792 7.4375 4.66667 7.34375 5.3125 7.34375C5.97917 7.34375 6.70833 7.4375 7.5 7.625C8.29167 7.8125 9.01042 8.125 9.65625 8.5625C10.3229 8.97917 10.6562 9.45833 10.6562 10V11.3438H0V10C0 9.45833 0.322917 8.97917 0.96875 8.5625C1.63542 8.125 2.36458 7.8125 3.15625 7.625Z" fill="#999999"/>
</svg>
